<svg width="80" height="80" viewBox="0 0 80 80" fill="none" xmlns="http://www.w3.org/2000/svg">
<path fill-rule="evenodd" clip-rule="evenodd" d="M62.8373 21.504C63.1224 21.2193 63.3486 20.8812 63.503 20.5091C63.6574 20.137 63.737 19.7381 63.7372 19.3352C63.7375 18.9323 63.6584 18.5334 63.5044 18.161C63.3505 17.7887 63.1247 17.4504 62.84 17.1653C62.5553 16.8803 62.2172 16.6541 61.8451 16.4997C61.473 16.3453 61.0741 16.2657 60.6712 16.2654C60.2683 16.2652 59.8694 16.3443 59.497 16.4982C59.1247 16.6522 58.7864 16.878 58.5013 17.1627L40 35.664L21.504 17.1627C20.9283 16.587 20.1475 16.2635 19.3333 16.2635C18.5192 16.2635 17.7384 16.587 17.1627 17.1627C16.587 17.7384 16.2635 18.5192 16.2635 19.3333C16.2635 20.1475 16.587 20.9283 17.1627 21.504L35.664 40L17.1627 58.496C16.8776 58.7811 16.6515 59.1195 16.4972 59.4919C16.343 59.8644 16.2635 60.2635 16.2635 60.6667C16.2635 61.0698 16.343 61.469 16.4972 61.8414C16.6515 62.2139 16.8776 62.5523 17.1627 62.8373C17.7384 63.413 18.5192 63.7365 19.3333 63.7365C19.7365 63.7365 20.1356 63.657 20.5081 63.5028C20.8805 63.3485 21.2189 63.1224 21.504 62.8373L40 44.336L58.5013 62.8373C59.077 63.4123 59.8576 63.7351 60.6712 63.7346C61.4849 63.7341 62.265 63.4104 62.84 62.8347C63.415 62.259 63.7377 61.4784 63.7372 60.6648C63.7367 59.8511 63.413 59.071 62.8373 58.496L44.336 40L62.8373 21.504Z" fill="#333333"/>
</svg>
