<svg width="80" height="80" viewBox="0 0 80 80" fill="none" xmlns="http://www.w3.org/2000/svg">
<path d="M43.3333 30H58.3333L56.6666 36.6666H43.3333V66.6666H36.6666V36.6666H23.3333V30H36.6666V23.76C36.6666 17.8166 37.2866 15.66 38.4466 13.4866C39.5833 11.3393 41.3393 9.58332 43.4866 8.44663C45.6599 7.28663 47.8166 6.66663 53.7599 6.66663C55.4999 6.66663 57.0266 6.83329 58.3333 7.16663V13.3333H53.7599C49.3466 13.3333 48.0033 13.5933 46.6299 14.3266C45.6442 14.8416 44.8402 15.6468 44.3266 16.6333C43.5933 18.0033 43.3333 19.3466 43.3333 23.76V30Z" fill="#331C52"/>
</svg>
