<svg width="80" height="80" viewBox="0 0 80 80" fill="none" xmlns="http://www.w3.org/2000/svg">
<path d="M40.0033 6.66669C21.5866 6.66669 6.66993 21.5833 6.66993 40C6.66591 46.9972 8.86526 53.818 12.956 59.4948C17.0467 65.1717 22.821 69.4164 29.4599 71.6267C31.1266 71.9167 31.7533 70.9167 31.7533 70.04C31.7533 69.25 31.7099 66.6267 31.7099 63.8333C23.3366 65.3767 21.1699 61.7933 20.5033 59.9167C20.1266 58.9567 18.5033 56 17.0866 55.2067C15.9199 54.5834 14.2533 53.04 17.0433 53C19.6699 52.9567 21.5433 55.4167 22.1699 56.4167C25.1699 61.4567 29.9599 60.04 31.8766 59.1667C32.1699 57 33.0433 55.5433 34.0033 54.71C26.5866 53.8767 18.8366 51 18.8366 38.25C18.8366 34.6234 20.1266 31.6267 22.2533 29.2934C21.9199 28.46 20.7533 25.0434 22.5866 20.46C22.5866 20.46 25.3766 19.5834 31.7533 23.8734C34.467 23.1213 37.2706 22.7434 40.0866 22.75C42.9199 22.75 45.7533 23.1234 48.4199 23.8734C54.7966 19.54 57.5866 20.46 57.5866 20.46C59.4199 25.0434 58.2533 28.46 57.9199 29.2934C60.0433 31.6267 61.3366 34.5834 61.3366 38.25C61.3366 51.0434 53.5466 53.8767 46.1299 54.71C47.3366 55.75 48.3799 57.75 48.3799 60.8767C48.3799 65.3333 48.3366 68.9167 48.3366 70.0434C48.3366 70.9167 48.9633 71.9567 50.6299 71.6233C57.2461 69.3888 62.995 65.1358 67.0676 59.4631C71.1403 53.7903 73.3316 46.9833 73.3333 40C73.3333 21.5833 58.4166 6.66669 39.9999 6.66669" fill="#6E369B"/>
</svg>
