<svg width="170" height="142" viewBox="0 0 170 142" fill="none" xmlns="http://www.w3.org/2000/svg">
<path fill-rule="evenodd" clip-rule="evenodd" d="M24.5367 121.505C34.9208 130.167 51.6092 130.167 85 130.167C118.391 130.167 135.086 130.167 145.456 121.499C155.833 112.843 155.833 98.8911 155.833 71C155.833 43.1088 155.833 29.1632 145.456 20.4953C135.093 11.8333 118.391 11.8333 85 11.8333C51.6092 11.8333 34.9138 11.8333 24.5367 20.4953C14.1667 29.1691 14.1667 43.1088 14.1667 71C14.1667 98.8911 14.1667 112.843 24.5367 121.505ZM132.812 94.6666C132.812 95.8435 132.253 96.9722 131.257 97.8044C130.26 98.6366 128.909 99.1041 127.5 99.1041H42.5C41.091 99.1041 39.7398 98.6366 38.7435 97.8044C37.7472 96.9722 37.1875 95.8435 37.1875 94.6666C37.1875 93.4897 37.7472 92.3611 38.7435 91.5289C39.7398 90.6967 41.091 90.2291 42.5 90.2291H127.5C128.909 90.2291 130.26 90.6967 131.257 91.5289C132.253 92.3611 132.812 93.4897 132.812 94.6666ZM127.5 75.4375C128.909 75.4375 130.26 74.97 131.257 74.1378C132.253 73.3056 132.812 72.1769 132.812 71C132.812 69.8231 132.253 68.6944 131.257 67.8622C130.26 67.03 128.909 66.5625 127.5 66.5625H42.5C41.091 66.5625 39.7398 67.03 38.7435 67.8622C37.7472 68.6944 37.1875 69.8231 37.1875 71C37.1875 72.1769 37.7472 73.3056 38.7435 74.1378C39.7398 74.97 41.091 75.4375 42.5 75.4375H127.5ZM132.812 47.3333C132.812 48.5102 132.253 49.6389 131.257 50.4711C130.26 51.3033 128.909 51.7708 127.5 51.7708H42.5C41.091 51.7708 39.7398 51.3033 38.7435 50.4711C37.7472 49.6389 37.1875 48.5102 37.1875 47.3333C37.1875 46.1564 37.7472 45.0277 38.7435 44.1955C39.7398 43.3633 41.091 42.8958 42.5 42.8958H127.5C128.909 42.8958 130.26 43.3633 131.257 44.1955C132.253 45.0277 132.812 46.1564 132.812 47.3333Z" fill="#333333"/>
</svg>
