<svg width="57" height="61" viewBox="0 0 57 61" fill="none" xmlns="http://www.w3.org/2000/svg">
<path d="M5.18749 54.9022L0 0H57L51.8056 54.8935L28.4654 61L5.18749 54.9022Z" fill="#E44F26"/>
<path d="M28.5 56.3335L47.3615 51.399L51.7987 4.48999H28.5V56.3335Z" fill="#F1662A"/>
<path d="M28.5 24.8509H19.0577L18.4067 17.9558H28.5V11.2218H28.4746H10.6081L10.779 13.03L12.5312 31.5849H28.5V24.8509Z" fill="#EBEBEB"/>
<path d="M28.5 42.3384L28.4677 42.3471L20.5214 40.3232L20.0135 34.953H16.1511H12.8498L13.8494 45.5234L28.4677 49.3534L28.5 49.3446V42.3384Z" fill="#EBEBEB"/>
<path d="M28.4746 24.8509V31.5849H37.2612L36.4348 40.3187L28.4746 42.3448V49.3511L43.1044 45.5234L43.2106 44.3861L44.8866 26.6591L45.0621 24.8509H43.139H28.4746Z" fill="white"/>
<path d="M28.4746 11.2218V15.4047V17.9405V17.9558H45.6877H45.7108L45.854 16.4438L46.1795 13.03L46.3503 11.2218H28.4746Z" fill="white"/>
</svg>
