<svg width="80" height="80" viewBox="0 0 80 80" fill="none" xmlns="http://www.w3.org/2000/svg">
<path d="M40.0034 30C37.3513 30 34.8077 31.0535 32.9323 32.9289C31.057 34.8043 30.0034 37.3478 30.0034 40C30.0034 42.6521 31.057 45.1957 32.9323 47.071C34.8077 48.9464 37.3513 50 40.0034 50C42.6556 50 45.1991 48.9464 47.0745 47.071C48.9498 45.1957 50.0034 42.6521 50.0034 40C50.0034 37.3478 48.9498 34.8043 47.0745 32.9289C45.1991 31.0535 42.6556 30 40.0034 30ZM40.0034 23.3333C44.4237 23.3333 48.6629 25.0892 51.7885 28.2148C54.9141 31.3405 56.6701 35.5797 56.6701 40C56.6701 44.4202 54.9141 48.6595 51.7885 51.7851C48.6629 54.9107 44.4237 56.6666 40.0034 56.6666C35.5831 56.6666 31.3439 54.9107 28.2183 51.7851C25.0927 48.6595 23.3367 44.4202 23.3367 40C23.3367 35.5797 25.0927 31.3405 28.2183 28.2148C31.3439 25.0892 35.5831 23.3333 40.0034 23.3333ZM61.6701 22.5C61.6701 23.605 61.2311 24.6648 60.4497 25.4462C59.6683 26.2276 58.6085 26.6666 57.5034 26.6666C56.3983 26.6666 55.3385 26.2276 54.5571 25.4462C53.7757 24.6648 53.3367 23.605 53.3367 22.5C53.3367 21.3949 53.7757 20.3351 54.5571 19.5537C55.3385 18.7723 56.3983 18.3333 57.5034 18.3333C58.6085 18.3333 59.6683 18.7723 60.4497 19.5537C61.2311 20.3351 61.6701 21.3949 61.6701 22.5ZM40.0034 13.3333C31.7567 13.3333 30.4101 13.3566 26.5734 13.5266C23.9601 13.65 22.2067 14 20.5801 14.6333C19.2188 15.1331 17.9881 15.9342 16.9801 16.9766C15.9368 17.9846 15.1346 19.2152 14.6334 20.5766C14.0001 22.21 13.6501 23.96 13.5301 26.57C13.3567 30.25 13.3334 31.5366 13.3334 40C13.3334 48.25 13.3567 49.5933 13.5267 53.43C13.6501 56.04 14.0001 57.7966 14.6301 59.42C15.1967 60.87 15.8634 61.9133 16.9701 63.02C18.0934 64.14 19.1367 64.81 20.5701 65.3633C22.2167 66 23.9701 66.3533 26.5701 66.4733C30.2501 66.6466 31.5367 66.6666 40.0001 66.6666C48.2501 66.6666 49.5934 66.6433 53.4301 66.4733C56.0367 66.35 57.7901 66 59.4201 65.37C60.7801 64.8677 62.0103 64.067 63.0201 63.0266C64.1434 61.9066 64.8134 60.8633 65.3667 59.4266C66.0001 57.7866 66.3534 56.0333 66.4734 53.4266C66.6467 49.75 66.6667 48.46 66.6667 40C66.6667 31.7533 66.6434 30.4066 66.4734 26.57C66.3501 23.9633 65.9967 22.2033 65.3667 20.5766C64.8643 19.2167 64.0636 17.9866 63.0234 16.9766C62.0159 15.9328 60.7851 15.1305 59.4234 14.63C57.7901 13.9966 56.0367 13.6466 53.4301 13.5266C49.7534 13.3533 48.4667 13.3333 40.0001 13.3333M40.0001 6.66663C49.0567 6.66663 50.1867 6.69996 53.7434 6.86663C57.2901 7.03329 59.7101 7.58996 61.8334 8.41663C64.0334 9.26329 65.8867 10.41 67.7401 12.26C69.4351 13.9263 70.7466 15.9419 71.5834 18.1666C72.4067 20.29 72.9667 22.71 73.1334 26.26C73.2901 29.8133 73.3334 30.9433 73.3334 40C73.3334 49.0566 73.3001 50.1866 73.1334 53.74C72.9667 57.29 72.4067 59.7066 71.5834 61.8333C70.7489 64.0592 69.4371 66.0753 67.7401 67.74C66.0733 69.4344 64.0578 70.7458 61.8334 71.5833C59.7101 72.4066 57.2901 72.9666 53.7434 73.1333C50.1867 73.29 49.0567 73.3333 40.0001 73.3333C30.9434 73.3333 29.8134 73.3 26.2567 73.1333C22.7101 72.9666 20.2934 72.4066 18.1667 71.5833C15.9412 70.7482 13.9252 69.4364 12.2601 67.74C10.5649 66.0738 9.25328 64.0581 8.41675 61.8333C7.59008 59.71 7.03341 57.29 6.86675 53.74C6.70675 50.1866 6.66675 49.0566 6.66675 40C6.66675 30.9433 6.70008 29.8133 6.86675 26.26C7.03341 22.71 7.59008 20.2933 8.41675 18.1666C9.25087 15.9406 10.5628 13.9244 12.2601 12.26C13.9257 10.5641 15.9415 9.25239 18.1667 8.41663C20.2901 7.58996 22.7067 7.03329 26.2567 6.86663C29.8167 6.70996 30.9467 6.66663 40.0034 6.66663" fill="#331C52"/>
</svg>
