<svg width="80" height="80" viewBox="0 0 80 80" fill="none" xmlns="http://www.w3.org/2000/svg">
<path d="M43.4267 6.66669C47.1767 6.67669 49.0801 6.69669 50.7234 6.74335L51.3701 6.76669C52.1167 6.79335 52.8534 6.82669 53.7434 6.86669C57.29 7.03335 59.71 7.59335 61.8334 8.41669C64.0334 9.26335 65.8867 10.41 67.7401 12.26C69.435 13.9263 70.7466 15.942 71.5834 18.1667C72.4067 20.29 72.9667 22.71 73.1334 26.26C73.1734 27.1467 73.2067 27.8834 73.2334 28.6334L73.2534 29.28C73.3034 30.92 73.3234 32.8234 73.3301 36.5734L73.3334 39.06V43.4267C73.3416 45.858 73.316 48.2894 73.2567 50.72L73.2367 51.3667C73.2101 52.1167 73.1767 52.8534 73.1367 53.74C72.9701 57.29 72.4034 59.7067 71.5834 61.8334C70.749 64.0593 69.4371 66.0754 67.7401 67.74C66.0733 69.4344 64.0577 70.7459 61.8334 71.5834C59.71 72.4067 57.29 72.9667 53.7434 73.1334C52.9524 73.1706 52.1613 73.2039 51.3701 73.2334L50.7234 73.2533C49.0801 73.3 47.1767 73.3234 43.4267 73.33L40.94 73.3334H36.5767C34.1443 73.3417 31.7118 73.3162 29.2801 73.2567L28.6334 73.2367C27.8421 73.2067 27.051 73.1723 26.26 73.1334C22.7134 72.9667 20.2934 72.4067 18.1667 71.5834C15.9423 70.7479 13.9274 69.4362 12.2634 67.74C10.5669 66.0743 9.25413 64.0586 8.41672 61.8334C7.59339 59.71 7.03338 57.29 6.86672 53.74C6.82958 52.9491 6.79625 52.158 6.76672 51.3667L6.75005 50.72C6.68863 48.2894 6.66084 45.8581 6.66672 43.4267V36.5734C6.65742 34.142 6.68186 31.7107 6.74005 29.28L6.76339 28.6334C6.79005 27.8834 6.82338 27.1467 6.86338 26.26C7.03005 22.71 7.59005 20.2934 8.41338 18.1667C9.25043 15.9397 10.5658 13.9234 12.2667 12.26C13.9304 10.5649 15.9439 9.25331 18.1667 8.41669C20.2934 7.59335 22.71 7.03335 26.26 6.86669C27.1467 6.82669 27.8867 6.79335 28.6334 6.76669L29.2801 6.74669C31.7107 6.68746 34.142 6.6619 36.5734 6.67002L43.4267 6.66669ZM40 23.3334C35.5798 23.3334 31.3405 25.0893 28.2149 28.2149C25.0893 31.3405 23.3334 35.5797 23.3334 40C23.3334 44.4203 25.0893 48.6595 28.2149 51.7851C31.3405 54.9107 35.5798 56.6667 40 56.6667C44.4203 56.6667 48.6596 54.9107 51.7852 51.7851C54.9108 48.6595 56.6667 44.4203 56.6667 40C56.6667 35.5797 54.9108 31.3405 51.7852 28.2149C48.6596 25.0893 44.4203 23.3334 40 23.3334ZM40 30C41.3133 29.9998 42.6137 30.2582 43.827 30.7606C45.0404 31.2629 46.1429 31.9993 47.0716 32.9278C48.0003 33.8562 48.7371 34.9585 49.2399 36.1716C49.7426 37.3848 50.0015 38.6851 50.0017 39.9984C50.0019 41.3116 49.7435 42.612 49.2411 43.8253C48.7388 45.0387 48.0024 46.1412 47.074 47.0699C46.1455 47.9986 45.0433 48.7354 43.8301 49.2382C42.6169 49.7409 41.3166 49.9998 40.0034 50C37.3512 50 34.8077 48.9465 32.9323 47.0711C31.057 45.1957 30.0034 42.6522 30.0034 40C30.0034 37.3479 31.057 34.8043 32.9323 32.929C34.8077 31.0536 37.3512 30 40.0034 30M57.5034 18.3334C56.3983 18.3334 55.3385 18.7723 54.5571 19.5537C53.7757 20.3351 53.3367 21.395 53.3367 22.5C53.3367 23.6051 53.7757 24.6649 54.5571 25.4463C55.3385 26.2277 56.3983 26.6667 57.5034 26.6667C58.6084 26.6667 59.6683 26.2277 60.4497 25.4463C61.2311 24.6649 61.67 23.6051 61.67 22.5C61.67 21.395 61.2311 20.3351 60.4497 19.5537C59.6683 18.7723 58.6084 18.3334 57.5034 18.3334Z" fill="#6E369B"/>
</svg>
