<svg width="80" height="80" viewBox="0 0 80 80" fill="none" xmlns="http://www.w3.org/2000/svg">
<path fill-rule="evenodd" clip-rule="evenodd" d="M41.6665 29.3334V35C42.8384 33.1702 44.4728 31.6825 46.4045 30.6874C48.3361 29.6923 50.4963 29.2252 52.6665 29.3334C64.3332 29.3334 66.6665 36.6667 66.6665 46V65H55.9999V48.3334C55.9999 44 55.3332 39 48.9999 39C42.6665 39 41.6665 43.3334 41.6665 47.6667V65H30.9999V29.3334H41.6665ZM23.9999 20.3334C24.0263 21.1615 23.8594 21.9844 23.5124 22.7368C23.1655 23.4892 22.6479 24.1504 22.001 24.668C21.354 25.1856 20.5953 25.5454 19.785 25.7187C18.9748 25.8921 18.1353 25.8742 17.3332 25.6667C16.6009 25.4496 15.9239 25.0777 15.3478 24.5763C14.7717 24.0749 14.31 23.4556 13.9939 22.7603C13.6779 22.065 13.5148 21.3099 13.5159 20.5462C13.5169 19.7824 13.682 19.0278 13.9999 18.3334C14.3682 17.6471 14.8825 17.0499 15.5064 16.5836C16.1303 16.1174 16.8487 15.7934 17.6112 15.6346C18.3737 15.4757 19.1618 15.4858 19.92 15.6641C20.6782 15.8424 21.3881 16.1846 21.9999 16.6667C22.9999 17.6667 23.6665 19 23.6665 20.3334H23.9999Z" fill="#331C52"/>
<path d="M23.9999 29.3334H13.3333V65H23.9999V29.3334Z" fill="#331C52"/>
</svg>
