<svg width="80" height="80" viewBox="0 0 80 80" fill="none" xmlns="http://www.w3.org/2000/svg">
<g clip-path="url(#clip0_124_22)">
<path fill-rule="evenodd" clip-rule="evenodd" d="M60 10C62.6522 10 65.1957 11.0536 67.0711 12.9289C68.9464 14.8043 70 17.3478 70 20V60C70 62.6522 68.9464 65.1957 67.0711 67.0711C65.1957 68.9464 62.6522 70 60 70H20C17.3478 70 14.8043 68.9464 12.9289 67.0711C11.0536 65.1957 10 62.6522 10 60V20C10 17.3478 11.0536 14.8043 12.9289 12.9289C14.8043 11.0536 17.3478 10 20 10H60ZM26.6667 33.3333C25.7826 33.3333 24.9348 33.6845 24.3096 34.3096C23.6845 34.9348 23.3333 35.7826 23.3333 36.6667V53.3333C23.3333 54.2174 23.6845 55.0652 24.3096 55.6904C24.9348 56.3155 25.7826 56.6667 26.6667 56.6667C27.5507 56.6667 28.3986 56.3155 29.0237 55.6904C29.6488 55.0652 30 54.2174 30 53.3333V36.6667C30 35.7826 29.6488 34.9348 29.0237 34.3096C28.3986 33.6845 27.5507 33.3333 26.6667 33.3333ZM36.6667 30C35.7826 30 34.9348 30.3512 34.3096 30.9763C33.6845 31.6014 33.3333 32.4493 33.3333 33.3333V53.3333C33.3333 54.2174 33.6845 55.0652 34.3096 55.6904C34.9348 56.3155 35.7826 56.6667 36.6667 56.6667C37.5507 56.6667 38.3986 56.3155 39.0237 55.6904C39.6488 55.0652 40 54.2174 40 53.3333V41.1333C41.0167 39.9867 42.7333 38.64 44.6433 37.8233C45.7533 37.35 47.4233 37.1567 48.5833 37.5233C48.9682 37.621 49.3109 37.8409 49.56 38.15C49.7333 38.3833 50 38.9033 50 40V53.3333C50 54.2174 50.3512 55.0652 50.9763 55.6904C51.6014 56.3155 52.4493 56.6667 53.3333 56.6667C54.2174 56.6667 55.0652 56.3155 55.6904 55.6904C56.3155 55.0652 56.6667 54.2174 56.6667 53.3333V40C56.6667 37.7667 56.1 35.78 54.92 34.1867C53.8342 32.7419 52.3145 31.6824 50.5833 31.1633C47.5767 30.22 44.2467 30.7433 42.0233 31.6967C41.311 32.0015 40.6175 32.3488 39.9467 32.7367C39.8069 31.9686 39.4021 31.274 38.8027 30.7739C38.2032 30.2738 37.4473 29.9999 36.6667 30ZM26.6667 23.3333C25.7826 23.3333 24.9348 23.6845 24.3096 24.3096C23.6845 24.9348 23.3333 25.7826 23.3333 26.6667C23.3333 27.5507 23.6845 28.3986 24.3096 29.0237C24.9348 29.6488 25.7826 30 26.6667 30C27.5507 30 28.3986 29.6488 29.0237 29.0237C29.6488 28.3986 30 27.5507 30 26.6667C30 25.7826 29.6488 24.9348 29.0237 24.3096C28.3986 23.6845 27.5507 23.3333 26.6667 23.3333Z" fill="#6E369B"/>
</g>
<defs>
<clipPath id="clip0_124_22">
<rect width="80" height="80" fill="white"/>
</clipPath>
</defs>
</svg>
