<svg width="40" height="48" viewBox="0 0 40 48" fill="none" xmlns="http://www.w3.org/2000/svg">
<path d="M35.9997 17.4935C35.9997 10.0529 28.8226 4.00015 19.9998 4.00015C11.1771 4.00015 4 10.0528 4 17.4967C4.00272 17.8683 4.22516 26.7696 17.0398 42.4549C17.3036 42.8851 17.7034 43.2536 18.2002 43.5244C18.6971 43.7952 19.2739 43.9591 19.8743 44C21.7248 44 22.9872 42.3811 23.11 42.2165C36.0064 26.5225 36.0064 17.8477 35.9997 17.4935ZM19.9999 22.928C18.5906 22.928 17.213 22.5962 16.0412 21.9746C14.8694 21.3529 13.9561 20.4693 13.4168 19.4356C12.8775 18.4018 12.7364 17.2643 13.0113 16.1668C13.2863 15.0694 13.9649 14.0613 14.9614 13.2701C15.9579 12.4789 17.2276 11.9401 18.6098 11.7218C19.992 11.5035 21.4248 11.6155 22.7268 12.0437C24.0288 12.4719 25.1417 13.197 25.9246 14.1274C26.7076 15.0578 27.1255 16.1516 27.1255 17.2705C27.1233 18.7705 26.3719 20.2085 25.0361 21.2691C23.7003 22.3297 21.8891 22.9263 19.9999 22.928Z" fill="#D22F27"/>
<path d="M35.9997 17.4934C35.9997 10.0528 28.8226 4.00012 19.9999 4.00012C18.6864 4.00472 17.3793 4.14581 16.1119 4.4198C24.5576 4.7787 31.3024 10.6683 31.3024 17.8785C31.3092 18.2329 31.3092 26.9077 18.4127 42.6017C18.239 42.8268 18.0416 43.0398 17.8226 43.2385C18.0817 43.4692 18.3972 43.6557 18.7499 43.7866C19.1026 43.9175 19.4852 43.9901 19.8743 44C21.7249 44 22.9872 42.3812 23.11 42.2166C36.0064 26.5225 36.0064 17.8476 35.9997 17.4934Z" fill="#EA5A47"/>
<path d="M19.8743 43.9999C19.2739 43.959 18.6971 43.7951 18.2003 43.5243C17.7034 43.2535 17.3036 42.885 17.0398 42.4548C4.22485 26.7695 4.00272 17.8683 4 17.4966C4 10.0526 11.177 4 19.9998 4C28.8227 4 35.9997 10.0526 35.9997 17.4934C36.0065 17.8477 36.0065 26.5226 23.11 42.2165C22.9872 42.3811 21.7248 43.9999 19.8743 43.9999Z" stroke="black" stroke-width="6.52036" stroke-linecap="round" stroke-linejoin="round"/>
<path d="M20 22.9279C18.5907 22.9279 17.213 22.5961 16.0412 21.9744C14.8695 21.3528 13.9562 20.4692 13.4169 19.4354C12.8776 18.4017 12.7365 17.2641 13.0114 16.1667C13.2864 15.0693 13.965 14.0612 14.9616 13.27C15.9581 12.4788 17.2277 11.94 18.61 11.7217C19.9922 11.5034 21.4249 11.6154 22.7269 12.0436C24.0289 12.4718 25.1418 13.197 25.9247 14.1273C26.7077 15.0577 27.1256 16.1515 27.1256 17.2705C27.1235 18.7704 26.3721 20.2084 25.0362 21.2691C23.7003 22.3297 21.8891 22.9263 20 22.9279Z" stroke="black" stroke-width="6.52036" stroke-linecap="round" stroke-linejoin="round"/>
</svg>
