<svg width="306" height="351" viewBox="0 0 306 351" fill="none" xmlns="http://www.w3.org/2000/svg">
<path d="M3 348V3H89.5L178.5 71L237 3H298.5L178.5 132.5L89.5 71V348H3Z" fill="#C19F23"/>
<path d="M178.5 227.5L129.5 153.5V227.5L178.5 304.5L237 227.5V348H298.5V92L178.5 227.5Z" fill="#C19F23"/>
<path d="M89.5 3H3V348H89.5V71M89.5 3V71M89.5 3L178.5 71L237 3H298.5L178.5 132.5L89.5 71M129.5 153.5L178.5 227.5L298.5 92V348H237V227.5L178.5 304.5L129.5 227.5V153.5Z" stroke="#1F49B5" stroke-width="6"/>
</svg>
