<svg width="46" height="45" viewBox="0 0 46 45" fill="none" xmlns="http://www.w3.org/2000/svg">
<path d="M15.3859 36.2339C15.3859 36.42 15.1726 36.5689 14.9036 36.5689C14.5976 36.5968 14.3843 36.4479 14.3843 36.2339C14.3843 36.0478 14.5976 35.8989 14.8665 35.8989C15.1448 35.871 15.3859 36.0199 15.3859 36.2339ZM12.5016 35.8152C12.4367 36.0013 12.6222 36.2153 12.9004 36.2712C13.1415 36.3642 13.4198 36.2712 13.4754 36.085C13.531 35.8989 13.3548 35.6849 13.0766 35.6012C12.8355 35.5361 12.5665 35.6291 12.5016 35.8152ZM16.6008 35.657C16.3319 35.7222 16.1464 35.8989 16.1742 36.113C16.202 36.2991 16.4431 36.42 16.7214 36.3549C16.9903 36.2898 17.1758 36.113 17.148 35.9269C17.1202 35.7501 16.8698 35.6291 16.6008 35.657ZM22.7032 0C9.83992 0 0 9.79824 0 22.7044C0 33.0237 6.47339 41.8542 15.7198 44.9621C16.9069 45.1761 17.3242 44.441 17.3242 43.8362C17.3242 43.2593 17.2964 40.0769 17.2964 38.1229C17.2964 38.1229 10.8044 39.5186 9.44113 35.3499C9.44113 35.3499 8.38387 32.6422 6.8629 31.9443C6.8629 31.9443 4.73911 30.4834 7.01129 30.5113C7.01129 30.5113 9.32056 30.6974 10.5911 32.912C12.6222 36.5038 16.0258 35.4709 17.352 34.8568C17.5653 33.368 18.1681 32.3351 18.8359 31.721C13.6516 31.1441 8.42097 30.3903 8.42097 21.4389C8.42097 18.88 9.12581 17.5959 10.6097 15.9582C10.3685 15.3534 9.58024 12.8596 10.8508 9.64005C12.7891 9.03522 17.25 12.1524 17.25 12.1524C19.1048 11.6313 21.0988 11.3615 23.0742 11.3615C25.0496 11.3615 27.0435 11.6313 28.8984 12.1524C28.8984 12.1524 33.3593 9.02592 35.2976 9.64005C36.5681 12.8689 35.7798 15.3534 35.5387 15.9582C37.0226 17.6052 37.9315 18.8893 37.9315 21.4389C37.9315 30.4183 32.469 31.1348 27.2847 31.721C28.1379 32.4561 28.8613 33.8518 28.8613 36.0385C28.8613 39.1743 28.8335 43.0545 28.8335 43.8176C28.8335 44.4224 29.2601 45.1575 30.4379 44.9435C39.7121 41.8542 46 33.0237 46 22.7044C46 9.79824 35.5665 0 22.7032 0ZM9.01452 32.0932C8.89395 32.1862 8.92177 32.4002 9.07944 32.577C9.22782 32.7259 9.44113 32.7911 9.56169 32.6701C9.68226 32.577 9.65444 32.363 9.49677 32.1862C9.34839 32.0373 9.13508 31.9722 9.01452 32.0932ZM8.0129 31.3395C7.94798 31.4604 8.04073 31.6093 8.22621 31.7024C8.3746 31.7954 8.56008 31.7675 8.625 31.6372C8.68992 31.5163 8.59718 31.3674 8.41169 31.2743C8.22621 31.2185 8.07782 31.2464 8.0129 31.3395ZM11.0177 34.6521C10.8694 34.773 10.925 35.0522 11.1383 35.229C11.3516 35.443 11.6206 35.4709 11.7411 35.322C11.8617 35.2011 11.806 34.9219 11.6206 34.7451C11.4165 34.5311 11.1383 34.5032 11.0177 34.6521ZM9.96048 33.2842C9.8121 33.3773 9.8121 33.6192 9.96048 33.8332C10.1089 34.0472 10.3593 34.1403 10.4798 34.0472C10.6282 33.9263 10.6282 33.6843 10.4798 33.4703C10.35 33.2563 10.1089 33.1633 9.96048 33.2842Z" fill="black"/>
</svg>
