<svg width="71" height="67" viewBox="0 0 71 67" fill="none" xmlns="http://www.w3.org/2000/svg">
<path fill-rule="evenodd" clip-rule="evenodd" d="M49.2903 53.3932C49.3905 53.2143 49.4866 53.0563 49.5684 52.8928C49.62 52.7882 49.6995 52.7673 49.8115 52.7701C50.4833 52.7877 51.1551 52.8069 51.8274 52.813C52.3984 52.8185 52.9706 52.8086 53.5421 52.8025C54.186 52.7954 54.8299 52.764 55.4732 52.7811C56.33 52.8042 57.1648 52.96 57.9398 53.3139C58.8653 53.7372 59.5655 54.3818 60.0428 55.2312C60.3476 55.7734 60.5243 56.3486 60.5948 56.9596C60.6968 57.8447 60.6298 58.7095 60.3274 59.5561C59.9527 60.6053 59.2412 61.4084 58.2528 62.01C57.4921 62.473 56.6579 62.7465 55.7638 62.9029C54.8175 63.0686 53.8682 63.0152 52.919 63.0179C51.8778 63.0218 50.8373 63.0008 49.7961 62.9898C49.6141 62.9882 49.588 62.9563 49.636 62.795L49.6805 62.6464C49.7819 62.3502 49.8364 62.337 50.1601 62.2875C50.3843 62.2539 50.6167 62.1757 50.8046 62.0601C50.9137 61.993 50.9588 61.8179 51.0015 61.6831C51.0382 61.5653 51.04 61.4359 51.0412 61.3115C51.056 59.4262 51.0715 57.5414 51.0798 55.6572C51.0815 55.1811 51.0697 54.7038 51.0412 54.2282C51.0211 53.8952 50.8295 53.6673 50.4026 53.5886C50.0706 53.5275 49.7362 53.4802 49.4024 53.4257L49.2903 53.3932ZM58.822 57.9581C58.7769 57.5827 58.755 57.204 58.6827 56.8341C58.5095 55.9462 58.0909 55.1728 57.3557 54.5668C56.1669 53.5875 54.7357 53.4367 53.2356 53.5534C52.8941 53.5798 52.8205 53.6882 52.8152 54.0141C52.8069 54.4765 52.7986 54.9389 52.798 55.4012C52.7956 56.8677 52.7956 58.3341 52.798 59.8005C52.7986 60.2177 52.8034 60.635 52.8164 61.0511C52.8306 61.4772 52.9972 61.8377 53.4467 62.0029C54.1552 62.2632 54.9005 62.2941 55.644 62.1878C56.8316 62.0188 57.6623 61.3765 58.2196 60.4137C58.6607 59.6497 58.7852 58.8157 58.822 57.9581ZM61.7089 62.9513C61.6947 62.7229 61.7955 62.5341 61.92 62.3607C61.9538 62.3139 62.07 62.3161 62.15 62.3012L62.8295 62.1763C63.0696 62.1289 63.1959 61.9792 63.2297 61.7607C63.2523 61.6164 63.2736 61.4706 63.2754 61.3247C63.2902 60.1704 63.3044 59.0161 63.3104 57.8618C63.3163 56.7058 63.3115 55.5499 63.3115 54.3939L63.3062 54.1732C63.2819 53.8016 63.0886 53.609 62.6914 53.5545L61.8299 53.4328C61.7237 53.4196 61.6852 53.3723 61.7237 53.2847C61.7901 53.1356 61.8536 52.9809 61.9473 52.8466C61.9822 52.797 62.1002 52.7778 62.1797 52.7794C62.5912 52.7849 63.0026 52.8135 63.4141 52.813L66.9959 52.7932C67.6861 52.7926 68.3525 52.9044 68.9715 53.211C69.6527 53.5479 70.034 54.0691 70.1431 54.7792C70.2569 55.5251 70.0132 56.1537 69.4263 56.653C69.1849 56.8589 68.8725 56.9932 68.5926 57.1605L68.5013 57.2134C68.761 57.302 69.0082 57.3785 69.249 57.4699C69.9534 57.7379 70.5137 58.1568 70.8101 58.8256C71.0443 59.3535 71.0443 59.904 70.9056 60.4511C70.6897 61.3076 70.082 61.8774 69.2917 62.3084C68.5499 62.713 67.7471 62.9486 66.8921 62.9882C66.1036 63.0251 65.3114 63.0113 64.5211 63.0196L64.0634 63.0218C63.3021 63.0058 62.5402 62.9876 61.7783 62.9689L61.7089 62.9513ZM64.9919 59.5996H64.9996C64.9996 59.9618 64.9942 60.324 65.0013 60.6862C65.0061 60.9207 64.9972 61.1618 65.0517 61.3875C65.1336 61.7249 65.2996 62.0293 65.7075 62.1262C66.2583 62.2577 66.821 62.2842 67.3783 62.1944C68.0762 62.0816 68.6329 61.7568 68.9383 61.1398C69.1648 60.6812 69.1986 60.1952 69.1209 59.6987C69.0177 59.0447 68.6436 58.5702 68.0216 58.2592C67.6137 58.055 67.1785 57.93 66.7149 57.9135C66.1955 57.8954 65.6755 57.8943 65.1561 57.8794C65.0102 57.8755 64.9901 57.9444 64.9907 58.0555C64.9936 58.5697 64.9919 59.0844 64.9919 59.5996ZM66.0976 57.1363C66.3816 57.1231 66.703 57.1192 67.0226 57.0895C67.6345 57.0328 68.0655 56.7471 68.2902 56.2038C68.4047 55.928 68.3999 55.644 68.4029 55.3572C68.4118 54.6102 67.9422 53.9981 67.1779 53.7449C66.588 53.5495 65.9797 53.5462 65.3678 53.5616C65.1199 53.5677 65.0091 53.6684 65.0055 53.9001L64.9687 56.9216C64.967 57.0416 65.0227 57.0933 65.1484 57.0972L66.0976 57.1363Z" fill="#94795D"/>
<path fill-rule="evenodd" clip-rule="evenodd" d="M3.80444 62.3706L3.76115 62.8902C3.35797 62.8902 2.98622 62.8874 2.61446 62.8913C1.91423 62.8979 1.214 62.9084 0.513179 62.9177L0.445586 62.9216C0.345384 62.9106 0.16336 62.9106 0.158617 62.883C0.128971 62.7284 0.138458 62.566 0.146166 62.4058C0.146758 62.3876 0.214944 62.3645 0.254669 62.3557L0.799555 62.2429C1.13929 62.1608 1.25906 62.0249 1.27507 61.699C1.29345 61.3319 1.31183 60.9641 1.31361 60.597C1.31895 59.6931 1.31302 58.7904 1.31717 57.8865C1.31776 57.6752 1.2389 57.5177 1.02664 57.4319C0.77406 57.3284 0.520293 57.2271 0.264748 57.1313C0.143794 57.0862 -0.0133282 57.0614 0.000901738 56.9106C0.0151316 56.757 0.16751 56.7168 0.310995 56.6866C0.905094 56.5605 1.49979 56.4377 2.09211 56.3034C2.28302 56.2599 2.46564 56.1867 2.69391 56.113C2.70577 56.2275 2.72771 56.3365 2.72534 56.4454L2.69035 56.9634C2.68976 57.0218 2.72237 57.0999 2.76921 57.1324C2.79767 57.1528 2.89313 57.1159 2.94056 57.0818C3.44691 56.724 3.9829 56.4152 4.5942 56.2352C5.54108 55.9561 6.35396 56.2148 6.92316 56.9728C7.12356 57.2398 7.12416 57.2398 7.40223 57.0532C7.87953 56.7311 8.37876 56.4471 8.93728 56.2599C10.1634 55.8488 11.3415 56.3706 11.7678 57.5172C11.9232 57.9333 11.9825 58.3632 11.9813 58.8025L11.97 61.7188C11.9694 61.9594 12.0554 62.0964 12.3021 62.1713C12.579 62.2555 12.8659 62.3133 13.1778 62.3893L13.1055 62.8907C12.7509 62.8907 12.4248 62.8885 12.0987 62.8913C11.3018 62.8979 10.5049 62.9018 9.70866 62.9188C9.56992 62.9221 9.53375 62.8902 9.52664 62.7696C9.50352 62.3838 9.49996 62.3843 9.89128 62.2974L10.0229 62.266C10.4053 62.1691 10.5328 62.0601 10.5358 61.7001C10.5447 60.6664 10.5678 59.6298 10.5115 58.5983C10.4528 57.5282 9.5379 56.9585 8.42086 57.2326C8.05622 57.3218 7.72596 57.4781 7.41883 57.6807C7.31507 57.7495 7.29551 57.8287 7.30381 57.9493C7.33523 58.4051 7.3548 58.8614 7.35895 59.3177C7.36606 60.1164 7.35539 60.9152 7.35895 61.7144C7.36014 62.0381 7.47931 62.1619 7.82379 62.2368L8.33548 62.3463L8.43034 62.3662C8.43746 62.5181 8.44398 62.67 8.43627 62.8219C8.43153 62.9172 8.35208 62.9254 8.26314 62.9238C7.76569 62.9122 7.26764 62.8968 6.77019 62.8979C6.16482 62.899 5.56005 62.915 4.95528 62.9249H4.81298C4.81298 62.7636 4.80468 62.6095 4.81891 62.4559C4.82188 62.419 4.89184 62.3673 4.93987 62.3557L5.53634 62.2385C5.78951 62.1807 5.91046 62.0601 5.92469 61.8212C5.99229 60.7148 6.0409 59.6078 5.92884 58.502C5.90691 58.2873 5.83161 58.0693 5.73555 57.8717C5.4302 57.2453 4.74302 56.9838 3.95029 57.1721C3.57379 57.2612 3.23406 57.4214 2.9127 57.6234C2.76091 57.7192 2.68858 57.8458 2.68858 58.006C2.68858 59.1097 2.69273 60.2133 2.69628 61.3164L2.70281 61.7419C2.70992 62.0386 2.8457 62.195 3.16291 62.2588C3.36687 62.3018 3.5732 62.3309 3.80444 62.3706Z" fill="#50382B"/>
<path fill-rule="evenodd" clip-rule="evenodd" d="M39.6508 56.2259C39.7427 56.6409 39.7409 57.0141 39.4124 57.297C39.0863 57.5783 38.6736 57.4837 38.2711 57.4209C38.3084 57.618 38.3499 57.7853 38.3701 57.9548C38.5165 59.2148 37.9325 60.1501 36.6737 60.6846C36.1982 60.886 35.6937 60.9609 35.1784 60.9994C34.9223 61.0181 34.6982 61.1998 34.6738 61.3952C34.6489 61.5934 34.7829 61.797 35.0509 61.8565C35.367 61.9264 35.6966 61.9462 36.0209 61.9809C36.717 62.0546 37.4208 62.0882 38.1086 62.2038C39.1486 62.3778 39.729 63.2205 39.5458 64.1904C39.3828 65.0535 38.8444 65.6816 38.0938 66.1632C36.8291 66.9768 35.4417 67.2146 33.9641 66.7996C33.1192 66.5618 32.5234 66.046 32.3176 65.2115C32.2144 64.7937 32.3241 64.4156 32.6627 64.1321C33.0653 63.7963 33.5034 63.4968 33.925 63.1798L34.0614 63.0526L33.9048 62.9508C33.475 62.7614 33.1311 62.5022 32.9977 62.0519C32.952 61.8994 32.9995 61.7992 33.1388 61.7211C33.376 61.5884 33.6119 61.4535 33.8461 61.3165C33.9564 61.2526 34.0655 61.1866 34.1681 61.1128C34.308 61.0137 34.2956 60.94 34.1284 60.8827C33.7394 60.7495 33.3937 60.5563 33.1258 60.2591C32.6781 59.7631 32.5512 59.1725 32.588 58.5488C32.6455 57.5745 33.2153 56.9326 34.1414 56.5198C35.2425 56.0293 36.347 55.9985 37.4694 56.4455C37.8845 56.6106 38.322 56.6459 38.7673 56.6172C39.0999 56.5952 39.3905 56.4785 39.6508 56.2259ZM35.5935 63.2062C34.7669 63.1996 34.5078 63.2943 34.0228 63.7528C33.4797 64.2669 33.4827 64.9798 34.0246 65.4961C34.4361 65.8875 34.9496 66.0708 35.5205 66.1258C36.1876 66.1897 36.8445 66.1638 37.4505 65.8539C38.0967 65.522 38.4181 64.9055 38.2728 64.2845C38.1525 63.7721 37.7457 63.5376 37.2506 63.4027C36.6874 63.2497 36.1051 63.2205 35.5935 63.2062ZM33.9701 58.3027C34.0003 58.5158 34.0127 58.7315 34.0637 58.9402C34.196 59.4807 34.4491 59.9558 35.0284 60.1963C35.7085 60.4798 36.5771 60.3581 36.8747 59.4719C37.0787 58.8647 37.0538 58.262 36.8077 57.6697C36.6981 57.4055 36.5214 57.182 36.2682 57.018C35.6776 56.6354 34.6122 56.5848 34.1782 57.4303C34.0371 57.7049 33.9819 57.9972 33.9701 58.3027Z" fill="#4F382B"/>
<path fill-rule="evenodd" clip-rule="evenodd" d="M25.6278 56.0899C25.6497 56.184 25.6936 56.2908 25.6948 56.3981C25.6965 56.6024 25.6728 56.8066 25.6604 57.0108V57.188L25.8465 57.0559C26.3565 56.6662 26.9043 56.3343 27.5423 56.1554C28.6937 55.8334 29.844 56.4185 30.2193 57.5073C30.3616 57.9213 30.4179 58.3468 30.4232 58.7794C30.4351 59.7405 30.4422 60.7016 30.4529 61.6627C30.4564 62.0079 30.4991 62.0695 30.8507 62.1691C31.0499 62.2258 31.2557 62.2655 31.4614 62.2952C31.5747 62.3117 31.6233 62.353 31.6174 62.4559L31.6186 62.5506C31.6144 62.9486 31.5848 62.9667 31.1691 62.9656C30.1742 62.964 29.1799 62.9695 28.185 62.9772C27.8885 62.9794 27.8879 62.9877 27.8583 62.7157L27.8524 62.5594C27.8708 62.3249 27.8767 62.3271 28.1251 62.293C28.2923 62.2699 28.4583 62.2341 28.6214 62.1945C28.7892 62.1543 28.8698 62.0392 28.8923 61.8851C28.9036 61.8069 28.9184 61.7288 28.9178 61.6506C28.9036 60.6003 28.922 59.549 28.8603 58.5003C28.8105 57.6521 28.1133 57.1468 27.196 57.2046C26.746 57.2337 26.3393 57.373 25.9681 57.6136C25.7232 57.7726 25.674 58.0022 25.6752 58.2493C25.6799 59.2313 25.69 60.2134 25.7013 61.1959C25.7037 61.4112 25.7102 61.6264 25.7321 61.84C25.7552 62.0734 25.8436 62.1675 26.0902 62.2181C26.3262 62.2666 26.5669 62.2946 26.8189 62.3337L26.8403 62.5143C26.8486 62.9354 26.8011 62.9667 26.3606 62.9651C25.3319 62.9612 24.3032 62.9673 23.2751 62.9778C23.1132 62.98 23.0444 62.9326 23.0486 62.7862L23.0462 62.7234C23.0195 62.3442 23.0314 62.3299 23.418 62.2682L23.6006 62.2341C24.0192 62.1466 24.1265 62.0431 24.1324 61.6484C24.152 60.3983 24.1591 59.1488 24.1728 57.8987C24.1745 57.7192 24.1016 57.58 23.9214 57.5057C23.6688 57.4022 23.4138 57.3036 23.1583 57.2062C23.0172 57.1523 22.8559 57.1181 22.8506 56.937C22.847 56.8093 22.994 56.6965 23.195 56.6585C23.5988 56.5825 24.0061 56.5192 24.4052 56.4262C24.8024 56.3343 25.1926 56.211 25.6278 56.0899Z" fill="#4F372B"/>
<path fill-rule="evenodd" clip-rule="evenodd" d="M47.8709 59.3552C47.8519 60.5227 47.5252 61.4667 46.6359 62.1752C45.5093 63.0741 43.7519 63.3796 42.3153 62.7075C41.7022 62.4207 41.2516 61.9809 40.9581 61.41C40.5081 60.5321 40.3955 59.609 40.6303 58.6633C40.8627 57.728 41.4728 57.0504 42.3859 56.6117C43.325 56.1609 44.314 55.9847 45.357 56.2214C46.6762 56.5203 47.6243 57.5189 47.8128 58.7904C47.8466 59.0134 47.8596 59.239 47.8709 59.3552ZM46.343 59.9877L46.292 59.9822C46.292 59.8721 46.2985 59.762 46.2908 59.6519C46.2475 58.966 46.0815 58.3126 45.6534 57.7385C45.2473 57.1946 44.6941 56.8737 43.9743 56.8269C43.1685 56.7741 42.4914 57.1924 42.2536 57.9565C41.8967 59.1036 42.0177 60.2216 42.645 61.2724C42.9183 61.7304 43.3233 62.0684 43.8658 62.2462C44.9289 62.5935 45.8716 62.1438 46.1485 61.1332C46.2505 60.76 46.2801 60.3697 46.343 59.9877Z" fill="#4F382B"/>
<path fill-rule="evenodd" clip-rule="evenodd" d="M21.7555 59.4455C21.7335 60.2833 21.5207 61.0578 20.9633 61.731C20.3663 62.4521 19.5457 62.8374 18.6124 62.9998C17.509 63.1913 16.4726 63.0174 15.5862 62.3299C15.1652 62.0029 14.8777 61.584 14.6879 61.1073C14.3767 60.3257 14.299 59.5247 14.4905 58.7084C14.6951 57.8348 15.2263 57.1671 16.0499 56.7191C17.0021 56.2022 18.0296 55.9715 19.1271 56.2038C20.5382 56.5033 21.3529 57.357 21.6541 58.6495C21.7146 58.9104 21.7229 59.1802 21.7555 59.4455ZM20.2103 59.9981L20.1694 59.9926V59.8352C20.1463 59.0668 19.9844 58.3347 19.4905 57.6961C19.1247 57.2222 18.635 56.9249 18.0071 56.8418C16.9837 56.7064 16.3149 57.2701 16.0931 58.0358C15.8038 59.0359 15.8945 60.024 16.3422 60.9724C16.6214 61.5636 17.0626 62.0244 17.7403 62.2478C18.7968 62.5963 19.7538 62.135 20.0212 61.1282C20.1196 60.76 20.1493 60.3757 20.2103 59.9981Z" fill="#4F372B"/>
<path fill-rule="evenodd" clip-rule="evenodd" d="M46.3868 16.7355C47.1143 18.688 47.6373 20.6812 47.8098 22.7465C48.0233 25.3094 47.926 27.8548 47.3438 30.3753L47.2691 30.5768C47.0865 30.5773 46.9003 30.5558 46.7218 30.5817C45.2141 30.8019 43.7081 31.0298 42.2015 31.2566C40.6439 31.4911 39.0851 31.7162 37.5305 31.9661C36.9797 32.0542 36.2978 31.9491 36.0755 32.6558L35.9688 32.6894L36.0441 28.463L35.9676 18.2653L36.6933 18.1497C37.8797 17.9697 39.0662 17.7864 40.2543 17.6108C41.6714 17.4021 43.0897 17.1985 44.5079 16.9948C45.134 16.9056 45.7607 16.8225 46.3868 16.7355Z" fill="#439934"/>
<path fill-rule="evenodd" clip-rule="evenodd" d="M34.4711 45.0108C33.7056 44.3998 32.9135 43.8158 32.1801 43.1729C28.2324 39.716 25.3444 35.6465 23.922 30.7402C23.5301 29.3905 23.2692 28.0182 23.185 26.6234C23.1257 25.6469 23.0409 24.6621 23.1156 23.6905C23.313 21.1073 23.7156 18.5487 24.5315 16.0601L24.5765 16.0023C24.656 16.1003 24.7698 16.1873 24.8102 16.2979C25.607 18.4755 26.3974 20.6553 27.1842 22.8368C29.656 29.6905 32.1249 36.5459 34.6009 43.3985C34.6495 43.5323 34.7746 43.6418 34.8648 43.7624L34.4711 45.0108Z" fill="#45A538"/>
<path fill-rule="evenodd" clip-rule="evenodd" d="M46.3868 16.7356C45.7601 16.822 45.1334 16.9056 44.5079 16.9948C43.0897 17.1985 41.6714 17.4022 40.2543 17.6108C39.0667 17.7858 37.8803 17.9691 36.6933 18.1497L35.9676 18.2653L35.9617 17.826C35.9373 17.4649 35.897 17.1038 35.8917 16.7427L35.8105 9.83228C35.7915 8.39063 35.763 6.94898 35.7316 5.50789C35.712 4.6123 35.6913 3.71615 35.648 2.82166C35.6243 2.34111 35.5407 1.86277 35.5075 1.38222C35.4879 1.10589 35.514 0.827357 35.5205 0.549927C35.8905 1.21543 36.2528 1.88589 36.6328 2.54643C37.2335 3.59065 38.191 4.36019 39.0537 5.19963C42.4606 8.51944 44.8791 12.377 46.3868 16.7356Z" fill="#46A037"/>
<path fill-rule="evenodd" clip-rule="evenodd" d="M35.9694 32.6894L36.0761 32.6558C36.2984 31.949 36.9803 32.0542 37.5311 31.9661C39.0857 31.7162 40.6445 31.4911 42.2021 31.2566C43.7086 31.0303 45.2146 30.8024 46.7224 30.5817C46.9009 30.5558 47.0871 30.5773 47.2697 30.5767C46.988 31.5103 46.7663 32.4643 46.4088 33.372C46.0026 34.4013 45.5117 35.4065 44.9905 36.3918C44.2114 37.8642 43.2408 39.2382 42.1131 40.4971C41.2439 41.467 40.2751 42.3648 39.3045 43.2505C38.7673 43.7398 38.1353 44.1389 37.5459 44.5793L37.3929 44.4824L36.8433 44.0464L36.2747 42.8883C35.8828 41.533 35.6776 40.1536 35.6432 38.751L35.6539 38.5154L35.7316 37.4949C35.7571 37.1464 35.7915 36.7986 35.8075 36.4501C35.8644 35.1973 35.9154 33.9433 35.9694 32.6894Z" fill="#409433"/>
<path fill-rule="evenodd" clip-rule="evenodd" d="M35.9693 32.6894C35.916 33.9433 35.865 35.1978 35.8075 36.4518C35.7915 36.8007 35.7577 37.1486 35.7316 37.4965L35.3853 37.6182C34.6157 35.5149 33.8455 33.4336 33.0925 31.3474C31.8468 27.8955 30.6165 24.4386 29.3726 20.9856C28.3688 18.1992 27.3561 15.4144 26.3381 12.6319C26.29 12.5019 26.1537 12.3996 26.0588 12.2845L28.2763 8.49902C28.3528 8.62178 28.453 8.73682 28.501 8.86893C29.5268 11.6873 30.5507 14.5062 31.5658 17.3278C32.8868 20.9993 34.1989 24.6725 35.5187 28.3446C35.5715 28.4911 35.6581 28.6265 35.7411 28.7911L36.0446 28.463C36.0191 29.8722 35.9942 31.2802 35.9693 32.6894Z" fill="#4FAA41"/>
<path fill-rule="evenodd" clip-rule="evenodd" d="M26.0582 12.2845C26.1537 12.3996 26.2901 12.502 26.3375 12.6319C27.3555 15.4144 28.3682 18.1987 29.372 20.9856C30.616 24.4386 31.8463 27.8955 33.092 31.3474C33.845 33.4336 34.6152 35.5144 35.3848 37.6182L35.731 37.4966L35.6533 38.5171L35.5828 38.7521C35.4624 39.869 35.361 40.9881 35.214 42.1028C35.1405 42.6615 34.9834 43.2097 34.8642 43.7624C34.7747 43.6419 34.649 43.5323 34.6003 43.3986C32.1237 36.5459 29.6554 29.6905 27.1836 22.8368C26.3968 20.6553 25.6058 18.4755 24.8096 16.2979C24.7692 16.1873 24.6554 16.1003 24.576 16.0023L26.0582 12.2845Z" fill="#4AA73C"/>
<path fill-rule="evenodd" clip-rule="evenodd" d="M36.0441 28.463L35.7405 28.7911C35.6575 28.6265 35.5709 28.4911 35.5182 28.3447C34.1983 24.6726 32.8862 20.9994 31.5652 17.3278C30.5501 14.5062 29.5262 11.6873 28.5004 8.86897C28.4524 8.73686 28.3522 8.62181 28.2757 8.49906L31.0179 5.15009C31.1045 5.25687 31.2278 5.3521 31.2723 5.47265C32.0336 7.54237 32.7878 9.61374 33.5384 11.6868C34.2392 13.6233 34.9294 15.562 35.6385 17.4952C35.6859 17.6245 35.8514 17.7159 35.9617 17.826L35.9676 18.2653L36.0441 28.463Z" fill="#57AE47"/>
<path fill-rule="evenodd" clip-rule="evenodd" d="M35.9616 17.826C35.8508 17.7164 35.6859 17.6251 35.6385 17.4952C34.93 15.562 34.2392 13.6232 33.5384 11.6867C32.7878 9.61372 32.0336 7.54236 31.2723 5.47264C31.2278 5.35209 31.1045 5.25686 31.0179 5.15007C31.9097 4.33925 32.7736 3.49925 33.7015 2.72586C34.5262 2.03889 35.1891 1.30238 35.2199 0.216329L35.2851 0L35.5199 0.549356C35.514 0.826786 35.4873 1.10532 35.5069 1.38165C35.5407 1.86219 35.6243 2.34054 35.6474 2.82109C35.6907 3.71558 35.7114 4.61173 35.731 5.50732C35.7624 6.94841 35.7909 8.39006 35.8099 9.83171L35.8911 16.7421C35.897 17.1038 35.9379 17.4649 35.9616 17.826Z" fill="#60B24F"/>
<path fill-rule="evenodd" clip-rule="evenodd" d="M34.8648 43.7619C34.984 43.2092 35.1411 42.6609 35.2146 42.1022C35.3616 40.9881 35.463 39.8685 35.5834 38.7516L35.6136 38.7472L35.6433 38.7521C35.6777 40.1547 35.8828 41.5342 36.2747 42.8894C36.1947 42.9874 36.0826 43.0738 36.0399 43.1839C35.7109 44.0459 35.4002 44.9151 35.0693 45.7765C35.0243 45.8943 34.8974 45.9862 34.809 46.0892L34.4705 45.0103L34.8648 43.7619Z" fill="#A9AA88"/>
<path fill-rule="evenodd" clip-rule="evenodd" d="M34.809 46.0897C34.8974 45.9862 35.0242 45.8948 35.0693 45.777C35.4002 44.9156 35.7108 44.0464 36.0399 43.1844C36.082 43.0743 36.1947 42.9879 36.2747 42.8899L36.8433 44.0481C36.7312 44.1956 36.5759 44.3293 36.5136 44.4939L35.4251 47.462C35.38 47.5814 35.2276 47.6651 35.1245 47.7658L34.809 46.0897Z" fill="#B6B598"/>
<path fill-rule="evenodd" clip-rule="evenodd" d="M35.1245 47.7653C35.227 47.6646 35.38 47.5809 35.4251 47.4615L36.5136 44.4934C36.5753 44.3288 36.7312 44.1951 36.8433 44.0475L37.3935 44.483C37.1279 44.7268 36.9803 45.0086 37.0692 45.3648L36.902 45.8729C36.8261 45.9598 36.7158 46.0358 36.6785 46.1354C36.2984 47.1461 35.9361 48.1622 35.5531 49.1723C35.5045 49.3 35.3699 49.4007 35.2756 49.5141L35.1245 47.7653Z" fill="#C2C1A7"/>
<path fill-rule="evenodd" clip-rule="evenodd" d="M35.2751 49.5136C35.3699 49.4002 35.5045 49.2995 35.5525 49.1718C35.9356 48.1617 36.2984 47.1455 36.6779 46.1349C36.7152 46.0353 36.8255 45.9598 36.9014 45.8723L36.6708 48.204C36.6091 48.2701 36.5202 48.3279 36.4905 48.4044L35.7233 50.4455C35.6693 50.5848 35.5662 50.7092 35.4855 50.8396C35.4138 50.7527 35.2857 50.6684 35.2798 50.5782C35.2573 50.2248 35.2733 49.8686 35.2751 49.5136Z" fill="#CECDB7"/>
<path fill-rule="evenodd" clip-rule="evenodd" d="M35.4861 50.8402C35.5668 50.7097 35.6699 50.5853 35.7239 50.4461L36.4911 48.405C36.5208 48.3279 36.6103 48.2706 36.6714 48.2046L36.6773 49.7349L36.1253 51.0488L35.4861 50.8402Z" fill="#DBDAC7"/>
<path fill-rule="evenodd" clip-rule="evenodd" d="M36.1253 51.0488L36.6773 49.7349L36.7911 51.2894L36.1253 51.0488Z" fill="#EBE9DC"/>
<path fill-rule="evenodd" clip-rule="evenodd" d="M37.0686 45.3647C36.9803 45.0091 37.1273 44.7273 37.393 44.4829L37.5459 44.5798L37.0686 45.3647Z" fill="#CECDB7"/>
<path fill-rule="evenodd" clip-rule="evenodd" d="M35.6441 38.7527L35.614 38.7478L35.5834 38.7522L35.6549 38.5172L35.6441 38.7527Z" fill="#4FAA41"/>
</svg>
