<svg width="60" height="54" viewBox="0 0 60 54" fill="none" xmlns="http://www.w3.org/2000/svg">
<path d="M49.332 17.5024C48.7096 17.2857 48.0647 17.0806 47.4006 16.8867C47.5097 16.4361 47.6099 15.9913 47.699 15.5541C49.1611 8.37497 48.2051 2.59139 44.9408 0.687186C41.8107 -1.13869 36.6917 0.765079 31.5218 5.31632C31.0246 5.75397 30.5261 6.21732 30.0278 6.70293C29.6957 6.38164 29.3642 6.07115 29.0336 5.77417C23.6153 0.907683 18.1844 -1.14312 14.9233 0.766591C11.7962 2.59776 10.8701 8.03488 12.1862 14.8386C12.3133 15.4958 12.4619 16.1669 12.6299 16.8492C11.8612 17.07 11.1192 17.3052 10.4092 17.5556C4.05687 19.7959 0 23.3069 0 26.9489C0 30.7103 4.35506 34.483 10.9715 36.7706C11.4936 36.9512 12.0354 37.1219 12.5938 37.2839C12.4125 38.0219 12.2549 38.7451 12.1226 39.4504C10.8677 46.1361 11.8477 51.4448 14.9664 53.2644C18.1878 55.1435 23.5942 53.212 28.8586 48.557C29.2747 48.189 29.6923 47.7988 30.1106 47.3898C30.6529 47.918 31.1942 48.4179 31.7327 48.8867C36.8319 53.3255 41.8683 55.1179 44.9841 53.2932C48.2023 51.4087 49.2482 45.7059 47.8904 38.7675C47.7867 38.2376 47.666 37.6963 47.5304 37.1453C47.9101 37.0318 48.2828 36.9145 48.6463 36.7927C55.5247 34.4874 60 30.7605 60 26.9489C60 23.2938 55.8123 19.759 49.332 17.5024ZM47.8402 34.3316C47.5121 34.4414 47.1754 34.5476 46.8324 34.6506C46.0731 32.2189 45.0482 29.6331 43.7941 26.9615C44.9909 24.3536 45.9761 21.8009 46.7142 19.3849C47.328 19.5646 47.9237 19.754 48.4977 19.954C54.05 21.8875 57.4368 24.7462 57.4368 26.9489C57.4368 29.2951 53.7792 32.3409 47.8402 34.3316ZM45.3759 39.2711C45.9763 42.3391 46.0621 45.113 45.6643 47.2815C45.307 49.23 44.5883 50.5291 43.6998 51.0493C41.8089 52.1565 37.7653 50.7174 33.4043 46.9213C32.9044 46.4861 32.4008 46.0215 31.8957 45.5297C33.5863 43.6593 35.276 41.4849 36.9251 39.07C39.8256 38.8097 42.566 38.384 45.0511 37.8029C45.1735 38.3023 45.2822 38.7922 45.3759 39.2711ZM20.4554 50.858C18.6079 51.518 17.1366 51.5369 16.2471 51.0181C14.3546 49.9139 13.5678 45.6516 14.641 39.934C14.7639 39.2792 14.9102 38.6066 15.0789 37.919C17.5367 38.4688 20.257 38.8644 23.1645 39.1029C24.8247 41.4659 26.5632 43.6379 28.3151 45.5397C27.9324 45.9135 27.5511 46.2694 27.172 46.6047C24.8441 48.6631 22.5112 50.1235 20.4554 50.858ZM11.8005 34.3172C8.8748 33.3057 6.45868 31.991 4.80255 30.5564C3.31441 29.2673 2.56307 27.9874 2.56307 26.9489C2.56307 24.7388 5.82034 21.9199 11.2529 20.0039C11.9121 19.7714 12.6021 19.5523 13.3182 19.3465C14.069 21.8171 15.0539 24.4 16.2424 27.012C15.0385 29.6627 14.0396 32.2868 13.2814 34.7863C12.7709 34.6378 12.2764 34.4816 11.8005 34.3172ZM14.7017 14.3407C13.5741 8.51142 14.3229 4.11401 16.2074 3.01056C18.2147 1.83504 22.6534 3.51108 27.3316 7.71305C27.6307 7.98162 27.9309 8.26272 28.2319 8.55355C26.4887 10.4471 24.7661 12.6028 23.1206 14.9518C20.2988 15.2164 17.5976 15.6414 15.1141 16.2105C14.958 15.5752 14.8197 14.951 14.7017 14.3407ZM40.5829 20.8053C39.9893 19.768 39.3797 18.7552 38.7584 17.77C40.6728 18.0148 42.5069 18.3398 44.2294 18.7374C43.7123 20.4139 43.0677 22.1668 42.309 23.9637C41.7648 22.9185 41.1891 21.8646 40.5829 20.8053ZM30.0286 10.4065C31.2109 11.7022 32.3949 13.1488 33.5594 14.7183C32.3859 14.6622 31.1979 14.633 30 14.633C28.8135 14.633 27.6342 14.6616 26.4679 14.7167C27.6336 13.1617 28.8279 11.7171 30.0286 10.4065ZM19.4067 20.8233C18.8136 21.8635 18.2487 22.9117 17.713 23.9617C16.9665 22.1711 16.328 20.4102 15.8064 18.71C17.5183 18.3225 19.3438 18.0056 21.246 17.7655C20.6159 18.7597 20.0014 19.7802 19.4067 20.8233ZM21.3008 36.3172C19.3355 36.0954 17.4825 35.7949 15.771 35.4181C16.301 33.6875 16.9536 31.889 17.7158 30.0598C18.2529 31.1091 18.8202 32.1577 19.4168 33.2002C20.0246 34.2623 20.6544 35.3027 21.3008 36.3172ZM30.0995 43.674C28.8847 42.3481 27.673 40.8814 26.4895 39.3038C27.6383 39.3494 28.8096 39.3727 30 39.3727C31.223 39.3727 32.4319 39.3449 33.6219 39.2913C32.4535 40.8973 31.2738 42.3662 30.0995 43.674ZM42.3335 29.9666C43.1354 31.8156 43.8115 33.6046 44.3483 35.3057C42.6086 35.7072 40.7303 36.0305 38.7513 36.2708C39.3742 35.2723 39.989 34.2421 40.5932 33.1824C41.2044 32.1103 41.7848 31.0365 42.3335 29.9666ZM38.3729 31.8871C37.435 33.5321 36.4721 35.1025 35.4946 36.5848C33.7142 36.7136 31.8748 36.7799 30 36.7799C28.1328 36.7799 26.3166 36.7213 24.5677 36.6064C23.5507 35.1047 22.5669 33.5296 21.635 31.9012C20.7055 30.2773 19.8502 28.6396 19.0751 27.0111C19.85 25.3788 20.7032 23.7393 21.6274 22.1183L21.6272 22.1186C22.5537 20.4932 23.5289 18.9259 24.5365 17.4335C26.3209 17.297 28.1507 17.2258 29.9999 17.2258C31.8575 17.2258 33.6897 17.2976 35.4736 17.4352C36.4657 18.9167 37.4343 20.479 38.3645 22.1045C39.3053 23.7484 40.1695 25.377 40.9511 26.9743C40.1719 28.599 39.3096 30.244 38.3729 31.8871ZM43.6605 2.93342C45.6697 4.10548 46.451 8.83239 45.1887 15.0308C45.1081 15.4263 45.0175 15.8292 44.919 16.2374C42.4297 15.6564 39.7266 15.2241 36.8966 14.9555C35.2479 12.5806 33.5394 10.4216 31.8246 8.55236C32.2856 8.1037 32.746 7.67588 33.2045 7.27216C37.6341 3.37269 41.7742 1.8331 43.6605 2.93342ZM30 21.5291C32.959 21.5291 35.3578 23.9556 35.3578 26.9489C35.3578 29.9421 32.959 32.3686 30 32.3686C27.041 32.3686 24.6422 29.9421 24.6422 26.9489C24.6422 23.9556 27.041 21.5291 30 21.5291Z" fill="#00D8FF"/>
</svg>
