<svg width="80" height="80" viewBox="0 0 80 80" fill="none" xmlns="http://www.w3.org/2000/svg">
<g clip-path="url(#clip0_137_2)">
<path d="M78.4275 2.87259L78.4274 2.87292L48.4274 77.8729L48.4273 77.8732C48.359 78.044 48.2448 78.1927 48.0975 78.3029C47.9501 78.4131 47.7752 78.4805 47.592 78.4976C47.4088 78.5148 47.2244 78.4811 47.0591 78.4002C46.8939 78.3193 46.7541 78.1944 46.6553 78.0392L45.3568 75.9917L45.2681 75.8517L45.2573 75.8409L29.4557 51.0048L29.2766 50.7234L28.9953 50.5444L4.37085 34.8775L4.36531 34.8664L4.0134 34.6432L1.9634 33.3432L1.96184 33.3422C1.80604 33.2437 1.68051 33.104 1.59911 32.9387C1.51771 32.7733 1.48362 32.5886 1.50059 32.405C1.51755 32.2215 1.58493 32.0462 1.69527 31.8985C1.80544 31.7511 1.95416 31.6369 2.12504 31.5686C2.1251 31.5685 2.12517 31.5685 2.12523 31.5685C2.12543 31.5684 2.12563 31.5683 2.12584 31.5682L4.11777 30.775H4.12397L4.39219 30.6677L77.1272 1.57272L77.1275 1.57259C77.3092 1.49985 77.5083 1.48204 77.7001 1.52138C77.8918 1.56071 78.0678 1.65546 78.2062 1.79387C78.3446 1.93228 78.4394 2.10827 78.4787 2.30003C78.5181 2.49177 78.5002 2.69086 78.4275 2.87259ZM71.7157 13.9407L71.9335 13.7229L72.0479 13.4369L74.4029 7.54689L75.7018 4.29834L72.4532 5.59721L66.5632 7.95221L66.2772 8.06656L66.0594 8.28435L28.5894 45.7543L27.2669 47.0768L28.845 48.0807L30.535 49.1557L30.5359 49.1562C30.6599 49.235 30.7651 49.3402 30.8439 49.4642L30.8444 49.4651L31.9194 51.1551L32.9233 52.7332L34.2457 51.4107L71.7157 13.9407Z" fill="white" stroke="#0E0854" stroke-width="3"/>
</g>
<defs>
<clipPath id="clip0_137_2">
<rect width="80" height="80" fill="white"/>
</clipPath>
</defs>
</svg>
