<svg width="39" height="40" viewBox="0 0 39 40" fill="none" xmlns="http://www.w3.org/2000/svg">
<path d="M36.1113 0H2.87896C1.28971 0 0 1.29167 0 2.88222V37.1139C0 38.7067 1.28971 40 2.87896 40H36.1113C37.7016 40 39 38.7067 39 37.1139V2.88222C39 1.29167 37.7016 0 36.1113 0ZM11.5668 34.0856H5.77958V14.9972H11.5668V34.0856ZM8.67317 12.3872C6.81904 12.3872 5.32025 10.8461 5.32025 8.94611C5.32025 7.04889 6.81904 5.50778 8.67317 5.50778C10.523 5.50778 12.0255 7.04889 12.0255 8.94611C12.0255 10.8461 10.523 12.3872 8.67317 12.3872ZM33.2313 34.0856H27.4533V24.8033C27.4533 22.5889 27.411 19.7417 24.4465 19.7417C21.4359 19.7417 20.9771 22.1533 20.9771 24.6428V34.0861H15.1948V14.9972H20.7442V17.6039H20.8233C21.5957 16.1039 23.4829 14.5211 26.2974 14.5211C32.1506 14.5211 33.2318 18.4733 33.2318 23.615L33.2313 34.0856Z" fill="#3015D5"/>
</svg>
