<svg width="61" height="73" viewBox="0 0 61 73" fill="none" xmlns="http://www.w3.org/2000/svg">
<path d="M25.6621 72.9532C18.0415 72.4606 10.5096 70.7407 5.8903 68.4381C3.25917 67.1266 1.25461 65.5148 0.468007 64.0783L0 63.2235V36.4138V9.60408L0.370331 8.92983C2.02528 5.91703 7.30698 3.20098 14.6799 1.57131C17.1827 1.01808 20.7958 0.467146 23.7434 0.18933C26.7533 -0.0944298 34.7313 -0.0512577 37.7337 0.265456C45.7135 1.1061 52.5038 2.98809 56.6883 5.51899C58.3021 6.49499 59.958 8.0567 60.519 9.13167L61 10.0533L60.9588 36.7819L60.9177 63.5107L60.5316 64.214C60.3192 64.6008 59.6778 65.3619 59.1062 65.9051C55.6267 69.2125 48.1631 71.6591 38.3733 72.7016C36.3779 72.9141 27.7093 73.0855 25.6621 72.9532ZM39.7056 49.9809C39.6763 49.9123 38.5371 49.0023 37.1741 47.9585C35.811 46.9147 34.6371 46.0117 34.5653 45.9517C34.4935 45.8917 34.7454 45.6795 35.125 45.48C35.5045 45.2805 36.2317 44.7255 36.7409 44.2466C38.2302 42.8464 38.9328 41.1167 38.9328 38.851C38.9328 36.6206 38.175 34.821 36.6572 33.4472C35.1274 32.0625 33.3709 31.4676 30.8131 31.4676C26.8703 31.4676 23.8423 33.5304 22.8758 36.8749C22.5434 38.0252 22.5452 40.3497 22.8793 41.3698C23.7509 44.0304 26.1247 45.9628 29.079 46.4166C30.0787 46.5702 30.2141 46.6363 30.8957 47.3045C31.3008 47.7016 32.132 48.4943 32.7429 49.0659L33.8536 50.1054H36.8063C38.4303 50.1054 39.7349 50.0494 39.7056 49.9809ZM29.5797 42.5678C28.8689 42.2354 28.6001 41.9775 28.1948 41.2386C27.8817 40.6679 27.8282 40.3433 27.8247 38.9944C27.8212 37.6238 27.8698 37.3276 28.1967 36.7325C28.7315 35.7586 29.4685 35.2975 30.6086 35.2236C32.1956 35.1203 33.1117 35.8188 33.5918 37.4971C34.1804 39.5549 33.5331 41.7426 32.1208 42.4687C31.3799 42.8496 30.2747 42.8927 29.5797 42.5678ZM16.4921 46.3874C19.5878 45.861 21.3451 44.2467 21.3451 41.9293C21.3451 39.8735 20.2106 38.6755 17.0749 37.4204C15.2799 36.7018 14.6297 36.2508 14.6297 35.7239C14.6297 35.2871 15.2468 34.8085 15.9651 34.6883C16.6664 34.5709 18.5265 34.8605 19.6249 35.2584L20.5457 35.5919V33.7645V31.9369L19.5463 31.7381C18.9287 31.6152 17.6309 31.5415 16.1487 31.5453C14.0491 31.5453 13.638 31.5911 12.8479 31.8725C10.5399 32.6941 9.4447 34.0936 9.46222 36.1988C9.47862 38.1696 10.6381 39.3989 13.5238 40.5048C15.2265 41.1573 15.9089 41.6542 15.9089 42.2414C15.9089 43.4892 13.5903 43.6427 11.1354 42.5575C10.4631 42.2603 9.85911 41.993 9.79315 41.9634C9.72721 41.9337 9.67326 42.7874 9.67326 43.8605C9.67326 45.8027 9.67556 45.812 10.0677 45.9459C11.5445 46.4494 14.8085 46.6737 16.4921 46.3874ZM51.8838 44.5857V42.937H49.0858H46.2877V37.274V31.611H43.8095H41.3312V38.9227V46.2344H46.6075H51.8838V44.5857ZM34.6158 15.6935C39.5406 15.3872 43.2322 14.8089 46.4808 13.835C49.7171 12.8647 51.6288 11.6907 52.0565 10.4109C52.2212 9.91775 52.2094 9.73069 51.9792 9.18997C50.9467 6.76586 45.179 4.9034 36.3656 4.14827C32.5956 3.8252 25.7394 3.92993 22.1448 4.36532C16.6599 5.02982 12.2086 6.26412 10.2294 7.66936C6.2257 10.5122 10.4597 13.6389 20.3059 15.1106C24.5752 15.7487 30.1063 15.974 34.6158 15.6935Z" fill="#00BCF2"/>
</svg>
