<svg width="61" height="44" viewBox="0 0 61 44" fill="none" xmlns="http://www.w3.org/2000/svg">
<path d="M30.5 0C22.3667 0 17.2833 4.88889 15.25 14.6667C18.3 9.77778 21.8583 7.94444 25.925 9.16667C28.2453 9.86401 29.9037 11.8876 31.7393 14.1277C34.7297 17.7767 38.1906 22 45.75 22C53.8833 22 58.9667 17.1111 61 7.33333C57.95 12.2222 54.3917 14.0556 50.325 12.8333C48.0047 12.136 46.3463 10.1124 44.5107 7.87233C41.5203 4.22332 38.0594 0 30.5 0ZM15.25 22C7.11667 22 2.03333 26.8889 0 36.6667C3.05 31.7778 6.60833 29.9444 10.675 31.1667C12.9953 31.864 14.6537 33.8876 16.4893 36.1277C19.4797 39.7767 22.9406 44 30.5 44C38.6333 44 43.7167 39.1111 45.75 29.3333C42.7 34.2222 39.1417 36.0556 35.075 34.8333C32.7547 34.136 31.0963 32.1124 29.2607 29.8723C26.2703 26.2233 22.8094 22 15.25 22Z" fill="url(#paint0_linear_1_42)"/>
<defs>
<linearGradient id="paint0_linear_1_42" x1="-433.778" y1="2168.32" x2="15024.4" y2="6628.2" gradientUnits="userSpaceOnUse">
<stop stop-color="#2298BD"/>
<stop offset="1" stop-color="#0ED7B5"/>
</linearGradient>
</defs>
</svg>
