<svg width="68" height="44" viewBox="0 0 68 44" fill="none" xmlns="http://www.w3.org/2000/svg">
<path d="M63.2668 27.55C63.4354 28.0756 63.8056 28.5128 64.2961 28.7658C64.7866 29.0189 65.3574 29.0672 65.8834 28.9C66.9668 28.55 67.5834 27.3834 67.2334 26.2834L67.2318 26.2784C67.0834 25.8334 58.7351 0.666687 33.9984 0.666687C9.26676 0.666687 0.91676 25.8334 0.770093 26.28L0.768427 26.2834C0.418427 27.3834 1.01843 28.55 2.11843 28.9C3.21843 29.25 4.38509 28.65 4.73509 27.55C5.03509 26.6167 12.2518 4.83335 34.0018 4.83335C55.7518 4.83335 62.9668 26.6167 63.2668 27.55ZM23.1668 29C23.1668 26.1268 24.3081 23.3713 26.3398 21.3397C28.3714 19.3081 31.1269 18.1667 34.0001 18.1667C36.8733 18.1667 39.6288 19.3081 41.6604 21.3397C43.6921 23.3713 44.8334 26.1268 44.8334 29C44.8334 31.8732 43.6921 34.6287 41.6604 36.6603C39.6288 38.692 36.8733 39.8334 34.0001 39.8334C31.1269 39.8334 28.3714 38.692 26.3398 36.6603C24.3081 34.6287 23.1668 31.8732 23.1668 29ZM34.0001 14C30.0218 14 26.2065 15.5804 23.3935 18.3934C20.5804 21.2065 19.0001 25.0218 19.0001 29C19.0001 32.9783 20.5804 36.7936 23.3935 39.6066C26.2065 42.4197 30.0218 44 34.0001 44C37.9783 44 41.7936 42.4197 44.6067 39.6066C47.4197 36.7936 49.0001 32.9783 49.0001 29C49.0001 25.0218 47.4197 21.2065 44.6067 18.3934C41.7936 15.5804 37.9783 14 34.0001 14Z" fill="white"/>
</svg>
