<svg width="80" height="62" viewBox="0 0 80 62" fill="none" xmlns="http://www.w3.org/2000/svg">
<path d="M20.4875 13.2882C19.0272 11.3302 15.7739 10.651 13.2213 11.7711C10.6686 12.8913 9.78306 15.3866 11.2435 17.3445C11.4775 17.6585 11.7649 17.9471 12.0981 18.2028L29.4895 35.6689L33.5436 39.5877L21.6442 27.6372C20.1839 25.6792 16.9306 25 14.3779 26.1202C11.8253 27.2403 10.9397 29.7356 12.4001 31.6936C12.6342 32.0075 12.9216 32.2961 13.2547 32.552L25.1542 44.5022L34.6107 53.6391C42.8552 60.8952 56.4996 60.4991 65.9575 54.1769C71.3932 50.512 74.889 45.4458 75.783 39.9372C76.3648 35.0413 77 22.2384 77 22.2384C76.7246 19.23 72.2718 17.0061 71.698 18.5598L64.3178 29.8464L59.2421 24.9623L38.9361 5.05689C37.4758 3.09892 34.2225 2.4197 31.6698 3.53986C29.1172 4.66002 28.2316 7.15529 29.692 9.11325C29.9261 9.42719 30.2135 9.71578 30.5466 9.97153L36.954 16.4064L46.6408 26.2154L26.4043 5.76457C24.9441 3.8066 21.6908 3.12738 19.1381 4.24754C16.5854 5.3677 15.6999 7.86296 17.1601 9.82093C17.3942 10.1349 17.6816 10.4235 18.0147 10.6793L40.1402 32.6736" fill="#FCEA2B"/>
<path d="M20.4875 13.2882C19.0272 11.3302 15.7739 10.651 13.2213 11.7711C10.6686 12.8913 9.78306 15.3866 11.2435 17.3445C11.4775 17.6585 11.7649 17.9471 12.0981 18.2028L29.4895 35.669L33.5436 39.5877L21.6442 27.6372C20.1839 25.6792 16.9306 25 14.3779 26.1202C11.8253 27.2403 10.9397 29.7356 12.4001 31.6936C12.6342 32.0075 12.9216 32.2961 13.2547 32.552L25.1542 44.5022L34.6107 53.6391C42.8552 60.8952 56.4996 60.4991 65.9575 54.1769C71.3932 50.512 74.889 45.4458 75.783 39.9372C76.3648 35.0413 77 22.2384 77 22.2384C76.7246 19.23 72.2718 17.0061 71.698 18.5598L64.3178 29.8464L59.2421 24.9623L38.9361 5.05689C37.4758 3.09892 34.2225 2.4197 31.6698 3.53986C29.1172 4.66002 28.2316 7.15529 29.692 9.11325C29.9261 9.42719 30.2135 9.71578 30.5466 9.97153L36.954 16.4064L46.6408 26.2154L26.4043 5.76457C24.9441 3.8066 21.6908 3.12738 19.1381 4.24754C16.5854 5.3677 15.6999 7.86296 17.1601 9.82093C17.3942 10.1349 17.6816 10.4235 18.0147 10.6793L40.1402 32.6736" stroke="black" stroke-width="4.22649" stroke-linecap="round" stroke-linejoin="round"/>
<path d="M9.95392 40.6225C9.95392 43.5909 12.5885 45.9929 15.8442 45.9929" stroke="black" stroke-width="4.22649" stroke-miterlimit="10" stroke-linecap="round" stroke-linejoin="round"/>
<path d="M3 40.1193C3 46.5922 8.74476 51.83 15.8442 51.83" stroke="black" stroke-width="4.22649" stroke-miterlimit="10" stroke-linecap="round" stroke-linejoin="round"/>
<path d="M60.6083 15.5979C60.6083 12.6295 57.9737 10.2275 54.718 10.2275" stroke="black" stroke-width="4.22649" stroke-miterlimit="10" stroke-linecap="round" stroke-linejoin="round"/>
<path d="M67.5622 16.1011C67.5622 9.62822 61.8174 4.3904 54.718 4.3904" stroke="black" stroke-width="4.22649" stroke-miterlimit="10" stroke-linecap="round" stroke-linejoin="round"/>
</svg>
