<svg width="238" height="235" viewBox="0 0 238 235" fill="none" xmlns="http://www.w3.org/2000/svg">
<g clip-path="url(#clip0_135_50)">
<path d="M220.83 175.92C222.485 173.087 223.51 169.898 223.51 167.028V67.5258C223.51 64.6654 222.487 61.4727 220.83 58.6399L117.97 117.28L220.83 175.92Z" fill="#00599C"/>
<path d="M127.107 232.404L214.373 182.661C216.887 181.227 219.174 178.752 220.831 175.92L117.97 117.28L15.0981 175.92C16.753 178.752 19.0419 181.225 21.5558 182.661L108.822 232.404C113.848 235.272 122.079 235.272 127.103 232.404H127.107Z" fill="#004482"/>
<path d="M220.83 58.6416C219.174 55.8033 216.887 53.3284 214.373 51.9019L127.105 2.15169C122.079 -0.717881 113.849 -0.717881 108.823 2.15169L21.5574 51.9019C16.5296 54.7623 12.4204 61.7976 12.4204 67.5257V167.026C12.4204 169.894 13.4431 173.085 15.0998 175.918L117.968 117.28L220.83 58.6416Z" fill="#659AD2"/>
<path d="M117.968 47.7986C79.1683 47.7986 47.6035 78.9673 47.6035 117.278C47.6035 155.588 79.1683 186.757 117.968 186.757C143.004 186.757 166.356 173.452 178.9 152.039L148.452 134.638C142.168 145.36 130.491 152.016 117.968 152.016C98.569 152.016 82.7847 136.432 82.7847 117.276C82.7847 98.1198 98.5708 82.5364 117.968 82.5364C130.481 82.5364 142.171 89.199 148.443 99.9135L178.9 82.5143C166.349 61.1 143.004 47.7986 117.968 47.7986ZM172.699 105.695V113.419H164.876V121.135H172.699V128.859H180.514V121.135H188.328V113.419H180.514V105.695H172.699ZM202.013 105.695V113.419H194.197V121.135H202.013V128.859H209.836V121.135H217.651V113.419H209.836V105.695H202.013Z" fill="white"/>
</g>
<defs>
<clipPath id="clip0_135_50">
<rect width="238" height="235" fill="white"/>
</clipPath>
</defs>
</svg>
