<svg width="926" height="802" viewBox="0 0 926 802" fill="none" xmlns="http://www.w3.org/2000/svg">
<path d="M481.5 242.083C567.812 242.083 655.167 208.821 655.167 145.25C655.167 81.6789 567.812 48.4166 481.5 48.4166C395.188 48.4166 307.833 81.6789 307.833 145.25C307.833 208.821 395.188 242.083 481.5 242.083Z" fill="#A19A9A"/>
<path d="M307.833 242.083C307.833 305.654 395.188 338.917 481.5 338.917C567.812 338.917 655.167 305.654 655.167 242.083V193.667C655.167 257.238 567.812 290.5 481.5 290.5C395.188 290.5 307.833 257.238 307.833 193.667V242.083Z" fill="#A19A9A"/>
<path d="M307.833 338.917C307.833 402.488 395.188 435.75 481.5 435.75C567.812 435.75 655.167 402.488 655.167 338.917V290.5C655.167 354.071 567.812 387.333 481.5 387.333C395.188 387.333 307.833 354.071 307.833 290.5V338.917Z" fill="#A19A9A"/>
<path d="M307.833 435.75C307.833 499.321 395.188 532.583 481.5 532.583C567.812 532.583 655.167 499.321 655.167 435.75V387.333C655.167 450.904 567.812 484.167 481.5 484.167C395.188 484.167 307.833 450.904 307.833 387.333V435.75Z" fill="#A19A9A"/>
<path d="M83.6055 659H61.1623V586.273H84.5998C91.6547 586.273 97.6916 587.729 102.711 590.641C107.73 593.529 111.577 597.684 114.252 603.105C116.927 608.503 118.265 614.966 118.265 622.494C118.265 630.07 116.915 636.592 114.216 642.061C111.517 647.506 107.587 651.696 102.426 654.632C97.2655 657.544 90.9918 659 83.6055 659ZM69.9691 651.188H83.0373C89.0505 651.188 94.034 650.027 97.9876 647.707C101.941 645.387 104.889 642.085 106.83 637.8C108.771 633.515 109.742 628.413 109.742 622.494C109.742 616.623 108.783 611.569 106.865 607.331C104.948 603.07 102.083 599.803 98.2717 597.53C94.4601 595.233 89.7134 594.085 84.0316 594.085H69.9691V651.188ZM147.952 660.278C144.496 660.278 141.359 659.627 138.542 658.325C135.724 657 133.487 655.094 131.83 652.608C130.173 650.098 129.344 647.068 129.344 643.517C129.344 640.392 129.96 637.859 131.191 635.918C132.422 633.953 134.067 632.414 136.127 631.301C138.186 630.188 140.459 629.36 142.945 628.815C145.454 628.247 147.976 627.797 150.509 627.466C153.823 627.04 156.51 626.72 158.57 626.507C160.653 626.27 162.168 625.88 163.115 625.335C164.086 624.791 164.571 623.844 164.571 622.494V622.21C164.571 618.706 163.613 615.984 161.695 614.043C159.801 612.101 156.925 611.131 153.066 611.131C149.065 611.131 145.928 612.007 143.655 613.759C141.382 615.51 139.784 617.381 138.861 619.369L130.907 616.528C132.327 613.214 134.221 610.634 136.588 608.787C138.98 606.917 141.584 605.615 144.401 604.881C147.242 604.123 150.035 603.744 152.782 603.744C154.533 603.744 156.546 603.957 158.819 604.384C161.115 604.786 163.328 605.626 165.459 606.905C167.614 608.183 169.401 610.113 170.821 612.693C172.242 615.274 172.952 618.73 172.952 623.062V659H164.571V651.614H164.145C163.577 652.797 162.63 654.064 161.304 655.413C159.979 656.763 158.215 657.911 156.013 658.858C153.811 659.805 151.124 660.278 147.952 660.278ZM149.23 652.75C152.545 652.75 155.338 652.099 157.611 650.797C159.908 649.495 161.636 647.814 162.796 645.754C163.98 643.695 164.571 641.528 164.571 639.256V631.585C164.216 632.011 163.435 632.402 162.228 632.757C161.044 633.089 159.671 633.384 158.108 633.645C156.569 633.882 155.066 634.095 153.598 634.284C152.154 634.45 150.982 634.592 150.083 634.71C147.905 634.994 145.869 635.456 143.975 636.095C142.105 636.711 140.589 637.646 139.429 638.901C138.293 640.132 137.725 641.812 137.725 643.943C137.725 646.855 138.802 649.057 140.956 650.548C143.134 652.016 145.892 652.75 149.23 652.75ZM211.97 604.455V611.557H183.703V604.455H211.97ZM191.942 591.386H200.322V643.375C200.322 645.742 200.666 647.518 201.352 648.702C202.063 649.862 202.962 650.643 204.051 651.045C205.164 651.424 206.336 651.614 207.567 651.614C208.49 651.614 209.248 651.566 209.839 651.472C210.431 651.353 210.905 651.259 211.26 651.188L212.964 658.716C212.396 658.929 211.603 659.142 210.585 659.355C209.567 659.592 208.277 659.71 206.714 659.71C204.347 659.71 202.027 659.201 199.754 658.183C197.505 657.165 195.635 655.615 194.143 653.531C192.676 651.448 191.942 648.82 191.942 645.648V591.386ZM240.628 660.278C237.171 660.278 234.035 659.627 231.217 658.325C228.4 657 226.163 655.094 224.506 652.608C222.848 650.098 222.02 647.068 222.02 643.517C222.02 640.392 222.635 637.859 223.866 635.918C225.098 633.953 226.743 632.414 228.803 631.301C230.862 630.188 233.135 629.36 235.621 628.815C238.13 628.247 240.652 627.797 243.185 627.466C246.499 627.04 249.186 626.72 251.246 626.507C253.329 626.27 254.844 625.88 255.791 625.335C256.762 624.791 257.247 623.844 257.247 622.494V622.21C257.247 618.706 256.288 615.984 254.371 614.043C252.477 612.101 249.6 611.131 245.741 611.131C241.741 611.131 238.604 612.007 236.331 613.759C234.058 615.51 232.46 617.381 231.537 619.369L223.582 616.528C225.003 613.214 226.897 610.634 229.264 608.787C231.655 606.917 234.259 605.615 237.077 604.881C239.918 604.123 242.711 603.744 245.457 603.744C247.209 603.744 249.222 603.957 251.494 604.384C253.791 604.786 256.004 605.626 258.135 606.905C260.289 608.183 262.077 610.113 263.497 612.693C264.918 615.274 265.628 618.73 265.628 623.062V659H257.247V651.614H256.821C256.253 652.797 255.306 654.064 253.98 655.413C252.654 656.763 250.891 657.911 248.689 658.858C246.487 659.805 243.8 660.278 240.628 660.278ZM241.906 652.75C245.221 652.75 248.014 652.099 250.287 650.797C252.583 649.495 254.312 647.814 255.472 645.754C256.655 643.695 257.247 641.528 257.247 639.256V631.585C256.892 632.011 256.111 632.402 254.903 632.757C253.72 633.089 252.347 633.384 250.784 633.645C249.245 633.882 247.742 634.095 246.274 634.284C244.83 634.45 243.658 634.592 242.759 634.71C240.58 634.994 238.545 635.456 236.651 636.095C234.78 636.711 233.265 637.646 232.105 638.901C230.969 640.132 230.401 641.812 230.401 643.943C230.401 646.855 231.478 649.057 233.632 650.548C235.81 652.016 238.568 652.75 241.906 652.75ZM347.686 616.67L340.157 618.801C339.684 617.546 338.985 616.327 338.062 615.143C337.163 613.936 335.931 612.942 334.369 612.161C332.806 611.379 330.806 610.989 328.368 610.989C325.029 610.989 322.248 611.758 320.022 613.297C317.821 614.812 316.72 616.741 316.72 619.085C316.72 621.169 317.477 622.814 318.993 624.021C320.508 625.229 322.875 626.235 326.095 627.04L334.191 629.028C339.068 630.212 342.702 632.023 345.093 634.462C347.484 636.876 348.68 639.99 348.68 643.801C348.68 646.926 347.78 649.72 345.981 652.182C344.206 654.644 341.72 656.585 338.524 658.006C335.328 659.426 331.611 660.136 327.373 660.136C321.81 660.136 317.205 658.929 313.559 656.514C309.913 654.099 307.605 650.572 306.635 645.932L314.589 643.943C315.347 646.879 316.779 649.08 318.886 650.548C321.017 652.016 323.798 652.75 327.231 652.75C331.137 652.75 334.239 651.921 336.535 650.264C338.855 648.583 340.015 646.571 340.015 644.227C340.015 642.333 339.352 640.747 338.027 639.469C336.701 638.167 334.665 637.196 331.919 636.557L322.828 634.426C317.833 633.242 314.163 631.408 311.819 628.922C309.499 626.412 308.339 623.276 308.339 619.511C308.339 616.434 309.203 613.711 310.931 611.344C312.683 608.976 315.063 607.118 318.069 605.768C321.1 604.419 324.532 603.744 328.368 603.744C333.765 603.744 338.003 604.928 341.081 607.295C344.182 609.663 346.384 612.788 347.686 616.67ZM385.017 604.455V611.557H356.75V604.455H385.017ZM364.989 591.386H373.369V643.375C373.369 645.742 373.713 647.518 374.399 648.702C375.109 649.862 376.009 650.643 377.098 651.045C378.211 651.424 379.383 651.614 380.614 651.614C381.537 651.614 382.295 651.566 382.886 651.472C383.478 651.353 383.952 651.259 384.307 651.188L386.011 658.716C385.443 658.929 384.65 659.142 383.632 659.355C382.614 659.592 381.324 659.71 379.761 659.71C377.394 659.71 375.074 659.201 372.801 658.183C370.552 657.165 368.682 655.615 367.19 653.531C365.723 651.448 364.989 648.82 364.989 645.648V591.386ZM397.624 659V604.455H405.72V612.693H406.288C407.283 609.994 409.082 607.804 411.686 606.124C414.29 604.443 417.226 603.602 420.493 603.602C421.108 603.602 421.878 603.614 422.801 603.638C423.724 603.661 424.423 603.697 424.896 603.744V612.267C424.612 612.196 423.961 612.089 422.943 611.947C421.949 611.782 420.895 611.699 419.783 611.699C417.131 611.699 414.764 612.255 412.68 613.368C410.621 614.457 408.987 615.972 407.78 617.913C406.596 619.831 406.004 622.021 406.004 624.483V659H397.624ZM469.206 636.699V604.455H477.586V659H469.206V649.767H468.637C467.359 652.537 465.37 654.893 462.672 656.834C459.973 658.751 456.564 659.71 452.444 659.71C449.035 659.71 446.005 658.964 443.353 657.473C440.702 655.958 438.618 653.685 437.103 650.655C435.588 647.601 434.831 643.754 434.831 639.114V604.455H443.211V638.545C443.211 642.523 444.324 645.695 446.549 648.062C448.798 650.43 451.663 651.614 455.143 651.614C457.226 651.614 459.345 651.081 461.5 650.016C463.678 648.95 465.501 647.317 466.968 645.115C468.46 642.913 469.206 640.108 469.206 636.699ZM515.095 660.136C509.982 660.136 505.578 658.929 501.885 656.514C498.192 654.099 495.351 650.773 493.362 646.536C491.374 642.298 490.379 637.456 490.379 632.011C490.379 626.472 491.397 621.583 493.433 617.345C495.493 613.084 498.357 609.758 502.027 607.366C505.72 604.952 510.029 603.744 514.953 603.744C518.788 603.744 522.245 604.455 525.322 605.875C528.4 607.295 530.921 609.284 532.886 611.841C534.851 614.398 536.071 617.381 536.544 620.79H528.163C527.524 618.304 526.104 616.102 523.902 614.185C521.724 612.243 518.788 611.273 515.095 611.273C511.828 611.273 508.964 612.125 506.501 613.83C504.063 615.51 502.157 617.89 500.784 620.967C499.435 624.021 498.76 627.608 498.76 631.727C498.76 635.941 499.423 639.611 500.749 642.736C502.098 645.861 503.992 648.287 506.43 650.016C508.893 651.744 511.781 652.608 515.095 652.608C517.273 652.608 519.25 652.229 521.026 651.472C522.801 650.714 524.304 649.625 525.536 648.205C526.767 646.784 527.643 645.08 528.163 643.091H536.544C536.071 646.311 534.899 649.211 533.028 651.791C531.182 654.348 528.732 656.384 525.678 657.899C522.647 659.391 519.12 660.136 515.095 660.136ZM572.517 604.455V611.557H544.25V604.455H572.517ZM552.489 591.386H560.869V643.375C560.869 645.742 561.213 647.518 561.899 648.702C562.609 649.862 563.509 650.643 564.598 651.045C565.711 651.424 566.883 651.614 568.114 651.614C569.037 651.614 569.795 651.566 570.386 651.472C570.978 651.353 571.452 651.259 571.807 651.188L573.511 658.716C572.943 658.929 572.15 659.142 571.132 659.355C570.114 659.592 568.824 659.71 567.261 659.71C564.894 659.71 562.574 659.201 560.301 658.183C558.052 657.165 556.182 655.615 554.69 653.531C553.223 651.448 552.489 648.82 552.489 645.648V591.386ZM619.499 636.699V604.455H627.879V659H619.499V649.767H618.93C617.652 652.537 615.663 654.893 612.964 656.834C610.266 658.751 606.857 659.71 602.737 659.71C599.328 659.71 596.298 658.964 593.646 657.473C590.995 655.958 588.911 653.685 587.396 650.655C585.881 647.601 585.124 643.754 585.124 639.114V604.455H593.504V638.545C593.504 642.523 594.617 645.695 596.842 648.062C599.091 650.43 601.956 651.614 605.436 651.614C607.519 651.614 609.638 651.081 611.793 650.016C613.971 648.95 615.794 647.317 617.261 645.115C618.753 642.913 619.499 640.108 619.499 636.699ZM643.229 659V604.455H651.326V612.693H651.894C652.888 609.994 654.687 607.804 657.292 606.124C659.896 604.443 662.831 603.602 666.098 603.602C666.714 603.602 667.483 603.614 668.407 603.638C669.33 603.661 670.028 603.697 670.502 603.744V612.267C670.218 612.196 669.567 612.089 668.549 611.947C667.554 611.782 666.501 611.699 665.388 611.699C662.737 611.699 660.369 612.255 658.286 613.368C656.226 614.457 654.593 615.972 653.385 617.913C652.202 619.831 651.61 622.021 651.61 624.483V659H643.229ZM701.645 660.136C696.39 660.136 691.856 658.976 688.044 656.656C684.257 654.312 681.333 651.045 679.273 646.855C677.237 642.641 676.219 637.741 676.219 632.153C676.219 626.566 677.237 621.642 679.273 617.381C681.333 613.096 684.197 609.758 687.867 607.366C691.56 604.952 695.869 603.744 700.793 603.744C703.634 603.744 706.439 604.218 709.209 605.165C711.979 606.112 714.5 607.651 716.773 609.781C719.046 611.888 720.857 614.682 722.206 618.162C723.556 621.642 724.23 625.927 724.23 631.017V634.568H682.185V627.324H715.708C715.708 624.246 715.092 621.5 713.861 619.085C712.654 616.67 710.926 614.765 708.676 613.368C706.451 611.971 703.823 611.273 700.793 611.273C697.455 611.273 694.567 612.101 692.128 613.759C689.713 615.392 687.855 617.523 686.553 620.151C685.251 622.778 684.6 625.596 684.6 628.602V633.432C684.6 637.551 685.31 641.043 686.73 643.908C688.175 646.749 690.175 648.915 692.732 650.406C695.289 651.874 698.26 652.608 701.645 652.608C703.847 652.608 705.836 652.3 707.611 651.685C709.41 651.045 710.961 650.098 712.263 648.844C713.565 647.565 714.571 645.979 715.282 644.085L723.378 646.358C722.526 649.104 721.094 651.519 719.081 653.602C717.069 655.662 714.583 657.272 711.624 658.432C708.665 659.568 705.338 660.136 701.645 660.136ZM775.615 616.67L768.087 618.801C767.614 617.546 766.915 616.327 765.992 615.143C765.092 613.936 763.861 612.942 762.299 612.161C760.736 611.379 758.736 610.989 756.297 610.989C752.959 610.989 750.177 611.758 747.952 613.297C745.75 614.812 744.65 616.741 744.65 619.085C744.65 621.169 745.407 622.814 746.922 624.021C748.437 625.229 750.805 626.235 754.025 627.04L762.121 629.028C766.998 630.212 770.632 632.023 773.023 634.462C775.414 636.876 776.61 639.99 776.61 643.801C776.61 646.926 775.71 649.72 773.911 652.182C772.135 654.644 769.65 656.585 766.453 658.006C763.257 659.426 759.541 660.136 755.303 660.136C749.739 660.136 745.135 658.929 741.489 656.514C737.843 654.099 735.535 650.572 734.564 645.932L742.519 643.943C743.276 646.879 744.709 649.08 746.816 650.548C748.946 652.016 751.728 652.75 755.161 652.75C759.067 652.75 762.168 651.921 764.465 650.264C766.785 648.583 767.945 646.571 767.945 644.227C767.945 642.333 767.282 640.747 765.956 639.469C764.631 638.167 762.595 637.196 759.848 636.557L750.757 634.426C745.762 633.242 742.093 631.408 739.749 628.922C737.429 626.412 736.269 623.276 736.269 619.511C736.269 616.434 737.133 613.711 738.861 611.344C740.613 608.976 742.992 607.118 745.999 605.768C749.029 604.419 752.462 603.744 756.297 603.744C761.695 603.744 765.933 604.928 769.01 607.295C772.112 609.663 774.313 612.788 775.615 616.67ZM837.947 659.994C833.165 659.994 829.045 659.118 825.589 657.366C822.132 655.615 819.469 653.212 817.599 650.158C815.728 647.104 814.793 643.612 814.793 639.682C814.793 636.652 815.433 633.964 816.711 631.621C818.013 629.253 819.8 627.063 822.073 625.051C824.37 623.015 827.009 620.979 829.992 618.943L840.504 611.131C842.563 609.781 844.209 608.337 845.44 606.798C846.694 605.259 847.322 603.247 847.322 600.761C847.322 598.915 846.505 597.127 844.871 595.399C843.262 593.671 841.143 592.807 838.515 592.807C836.668 592.807 835.035 593.28 833.614 594.227C832.218 595.151 831.117 596.334 830.312 597.778C829.531 599.199 829.14 600.667 829.14 602.182C829.14 603.886 829.602 605.615 830.525 607.366C831.472 609.095 832.667 610.87 834.112 612.693C835.579 614.492 837.094 616.339 838.657 618.233L872.038 659H861.952L834.396 625.761C831.839 622.684 829.519 619.89 827.435 617.381C825.352 614.871 823.695 612.397 822.464 609.959C821.233 607.52 820.617 604.881 820.617 602.04C820.617 598.773 821.339 595.908 822.783 593.446C824.251 590.96 826.299 589.031 828.927 587.658C831.578 586.261 834.68 585.562 838.231 585.562C841.877 585.562 845.013 586.273 847.641 587.693C850.269 589.09 852.293 590.948 853.714 593.268C855.134 595.565 855.844 598.062 855.844 600.761C855.844 604.241 854.98 607.26 853.252 609.817C851.524 612.374 849.168 614.753 846.185 616.955L831.697 627.75C828.43 630.165 826.216 632.509 825.056 634.781C823.896 637.054 823.316 638.687 823.316 639.682C823.316 641.955 823.908 644.073 825.092 646.038C826.275 648.003 827.944 649.589 830.099 650.797C832.253 652.004 834.774 652.608 837.663 652.608C840.409 652.608 843.084 652.028 845.688 650.868C848.292 649.684 850.648 647.98 852.755 645.754C854.886 643.529 856.567 640.854 857.798 637.729C859.052 634.604 859.68 631.088 859.68 627.182H867.776C867.776 632.011 867.22 635.953 866.107 639.007C864.995 642.061 863.74 644.452 862.343 646.18C860.946 647.909 859.822 649.199 858.969 650.051C858.685 650.406 858.425 650.761 858.188 651.116C857.951 651.472 857.691 651.827 857.407 652.182C855.063 654.81 852.104 656.775 848.529 658.077C844.954 659.355 841.427 659.994 837.947 659.994ZM208.157 781.278C204.701 781.278 201.564 780.627 198.747 779.325C195.929 778 193.692 776.094 192.035 773.608C190.378 771.098 189.549 768.068 189.549 764.517C189.549 761.392 190.165 758.859 191.396 756.918C192.627 754.953 194.272 753.414 196.332 752.301C198.392 751.188 200.664 750.36 203.15 749.815C205.66 749.247 208.181 748.797 210.714 748.466C214.028 748.04 216.715 747.72 218.775 747.507C220.858 747.27 222.374 746.88 223.32 746.335C224.291 745.791 224.776 744.844 224.776 743.494V743.21C224.776 739.706 223.818 736.984 221.9 735.043C220.006 733.101 217.13 732.131 213.271 732.131C209.27 732.131 206.133 733.007 203.86 734.759C201.588 736.51 199.99 738.381 199.066 740.369L191.112 737.528C192.532 734.214 194.426 731.634 196.794 729.787C199.185 727.917 201.789 726.615 204.606 725.881C207.447 725.123 210.24 724.744 212.987 724.744C214.739 724.744 216.751 724.957 219.024 725.384C221.32 725.786 223.534 726.626 225.664 727.905C227.819 729.183 229.606 731.113 231.026 733.693C232.447 736.274 233.157 739.73 233.157 744.062V780H224.776V772.614H224.35C223.782 773.797 222.835 775.064 221.509 776.413C220.184 777.763 218.42 778.911 216.218 779.858C214.017 780.805 211.329 781.278 208.157 781.278ZM209.436 773.75C212.75 773.75 215.544 773.099 217.816 771.797C220.113 770.495 221.841 768.814 223.001 766.754C224.185 764.695 224.776 762.528 224.776 760.256V752.585C224.421 753.011 223.64 753.402 222.433 753.757C221.249 754.089 219.876 754.384 218.313 754.645C216.775 754.882 215.271 755.095 213.803 755.284C212.359 755.45 211.187 755.592 210.288 755.71C208.11 755.994 206.074 756.456 204.18 757.095C202.31 757.711 200.794 758.646 199.634 759.901C198.498 761.132 197.93 762.812 197.93 764.943C197.93 767.855 199.007 770.057 201.161 771.548C203.339 773.016 206.097 773.75 209.436 773.75ZM256.834 707.273V780H248.454V707.273H256.834ZM294.201 801.591C290.153 801.591 286.673 801.07 283.761 800.028C280.849 799.01 278.422 797.661 276.481 795.98C274.563 794.323 273.036 792.547 271.9 790.653L278.576 785.966C279.334 786.96 280.293 788.097 281.453 789.375C282.613 790.677 284.199 791.802 286.211 792.749C288.247 793.719 290.91 794.205 294.201 794.205C298.605 794.205 302.239 793.139 305.103 791.009C307.968 788.878 309.4 785.54 309.4 780.994V769.915H308.69C308.074 770.909 307.198 772.14 306.062 773.608C304.949 775.052 303.339 776.342 301.232 777.479C299.149 778.591 296.332 779.148 292.781 779.148C288.377 779.148 284.424 778.106 280.92 776.023C277.44 773.939 274.682 770.909 272.646 766.932C270.633 762.955 269.627 758.125 269.627 752.443C269.627 746.856 270.61 741.991 272.575 737.848C274.54 733.681 277.274 730.462 280.778 728.189C284.282 725.893 288.33 724.744 292.923 724.744C296.474 724.744 299.291 725.336 301.374 726.52C303.481 727.68 305.091 729.006 306.204 730.497C307.34 731.965 308.216 733.172 308.832 734.119H309.684V725.455H317.781V781.562C317.781 786.25 316.715 790.062 314.585 792.997C312.478 795.956 309.637 798.123 306.062 799.496C302.511 800.893 298.557 801.591 294.201 801.591ZM293.917 771.619C297.279 771.619 300.12 770.85 302.44 769.311C304.76 767.772 306.524 765.559 307.731 762.67C308.938 759.782 309.542 756.326 309.542 752.301C309.542 748.371 308.95 744.903 307.767 741.896C306.583 738.89 304.831 736.534 302.511 734.83C300.191 733.125 297.326 732.273 293.917 732.273C290.366 732.273 287.407 733.172 285.039 734.972C282.695 736.771 280.932 739.186 279.748 742.216C278.588 745.246 278.008 748.608 278.008 752.301C278.008 756.089 278.6 759.439 279.784 762.351C280.991 765.239 282.767 767.512 285.11 769.169C287.478 770.803 290.413 771.619 293.917 771.619ZM355.281 781.136C350.356 781.136 346.036 779.964 342.319 777.621C338.626 775.277 335.738 771.998 333.654 767.784C331.595 763.57 330.565 758.646 330.565 753.011C330.565 747.33 331.595 742.37 333.654 738.132C335.738 733.894 338.626 730.604 342.319 728.26C346.036 725.916 350.356 724.744 355.281 724.744C360.205 724.744 364.514 725.916 368.207 728.26C371.924 730.604 374.812 733.894 376.872 738.132C378.955 742.37 379.997 747.33 379.997 753.011C379.997 758.646 378.955 763.57 376.872 767.784C374.812 771.998 371.924 775.277 368.207 777.621C364.514 779.964 360.205 781.136 355.281 781.136ZM355.281 773.608C359.021 773.608 362.099 772.649 364.514 770.732C366.928 768.814 368.716 766.293 369.876 763.168C371.036 760.043 371.616 756.657 371.616 753.011C371.616 749.366 371.036 745.968 369.876 742.82C368.716 739.671 366.928 737.126 364.514 735.185C362.099 733.243 359.021 732.273 355.281 732.273C351.54 732.273 348.463 733.243 346.048 735.185C343.633 737.126 341.846 739.671 340.686 742.82C339.526 745.968 338.945 749.366 338.945 753.011C338.945 756.657 339.526 760.043 340.686 763.168C341.846 766.293 343.633 768.814 346.048 770.732C348.463 772.649 351.54 773.608 355.281 773.608ZM392.79 780V725.455H400.886V733.693H401.454C402.449 730.994 404.248 728.804 406.852 727.124C409.456 725.443 412.392 724.602 415.659 724.602C416.274 724.602 417.044 724.614 417.967 724.638C418.89 724.661 419.589 724.697 420.062 724.744V733.267C419.778 733.196 419.127 733.089 418.109 732.947C417.115 732.782 416.061 732.699 414.949 732.699C412.297 732.699 409.93 733.255 407.846 734.368C405.787 735.457 404.153 736.972 402.946 738.913C401.762 740.831 401.17 743.021 401.17 745.483V780H392.79ZM429.997 780V725.455H438.377V780H429.997ZM434.258 716.364C432.624 716.364 431.216 715.807 430.032 714.695C428.872 713.582 428.292 712.244 428.292 710.682C428.292 709.119 428.872 707.782 430.032 706.669C431.216 705.556 432.624 705 434.258 705C435.892 705 437.288 705.556 438.448 706.669C439.632 707.782 440.224 709.119 440.224 710.682C440.224 712.244 439.632 713.582 438.448 714.695C437.288 715.807 435.892 716.364 434.258 716.364ZM475.744 801.591C471.696 801.591 468.216 801.07 465.304 800.028C462.392 799.01 459.965 797.661 458.024 795.98C456.106 794.323 454.579 792.547 453.443 790.653L460.119 785.966C460.877 786.96 461.836 788.097 462.996 789.375C464.156 790.677 465.742 791.802 467.754 792.749C469.79 793.719 472.453 794.205 475.744 794.205C480.148 794.205 483.782 793.139 486.646 791.009C489.511 788.878 490.943 785.54 490.943 780.994V769.915H490.233C489.617 770.909 488.741 772.14 487.605 773.608C486.492 775.052 484.882 776.342 482.775 777.479C480.692 778.591 477.875 779.148 474.324 779.148C469.92 779.148 465.967 778.106 462.463 776.023C458.983 773.939 456.225 770.909 454.189 766.932C452.176 762.955 451.17 758.125 451.17 752.443C451.17 746.856 452.153 741.991 454.118 737.848C456.083 733.681 458.817 730.462 462.321 728.189C465.825 725.893 469.873 724.744 474.466 724.744C478.017 724.744 480.834 725.336 482.917 726.52C485.024 727.68 486.634 729.006 487.747 730.497C488.883 731.965 489.759 733.172 490.375 734.119H491.227V725.455H499.324V781.562C499.324 786.25 498.258 790.062 496.128 792.997C494.021 795.956 491.18 798.123 487.605 799.496C484.054 800.893 480.1 801.591 475.744 801.591ZM475.46 771.619C478.822 771.619 481.663 770.85 483.983 769.311C486.303 767.772 488.067 765.559 489.274 762.67C490.481 759.782 491.085 756.326 491.085 752.301C491.085 748.371 490.493 744.903 489.309 741.896C488.126 738.89 486.374 736.534 484.054 734.83C481.734 733.125 478.869 732.273 475.46 732.273C471.909 732.273 468.95 733.172 466.582 734.972C464.238 736.771 462.475 739.186 461.291 742.216C460.131 745.246 459.551 748.608 459.551 752.301C459.551 756.089 460.143 759.439 461.327 762.351C462.534 765.239 464.309 767.512 466.653 769.169C469.021 770.803 471.956 771.619 475.46 771.619ZM523.045 747.188V780H514.665V707.273H523.045V733.977H523.756C525.034 731.16 526.952 728.923 529.508 727.266C532.089 725.585 535.522 724.744 539.807 724.744C543.523 724.744 546.779 725.49 549.572 726.982C552.366 728.449 554.532 730.71 556.071 733.764C557.633 736.795 558.415 740.653 558.415 745.341V780H550.034V745.909C550.034 741.577 548.909 738.227 546.66 735.859C544.435 733.468 541.345 732.273 537.392 732.273C534.646 732.273 532.184 732.853 530.006 734.013C527.851 735.173 526.147 736.866 524.892 739.091C523.661 741.316 523.045 744.015 523.045 747.188ZM597.468 725.455V732.557H569.201V725.455H597.468ZM577.44 712.386H585.82V764.375C585.82 766.742 586.164 768.518 586.85 769.702C587.561 770.862 588.46 771.643 589.549 772.045C590.662 772.424 591.834 772.614 593.065 772.614C593.988 772.614 594.746 772.566 595.338 772.472C595.929 772.353 596.403 772.259 596.758 772.188L598.463 779.716C597.894 779.929 597.101 780.142 596.083 780.355C595.065 780.592 593.775 780.71 592.213 780.71C589.845 780.71 587.525 780.201 585.252 779.183C583.003 778.165 581.133 776.615 579.642 774.531C578.174 772.448 577.44 769.82 577.44 766.648V712.386ZM610.075 780V725.455H618.171V733.977H618.882C620.018 731.065 621.853 728.804 624.386 727.195C626.919 725.561 629.961 724.744 633.512 724.744C637.111 724.744 640.106 725.561 642.497 727.195C644.911 728.804 646.794 731.065 648.143 733.977H648.711C650.108 731.16 652.203 728.923 654.997 727.266C657.79 725.585 661.14 724.744 665.046 724.744C669.923 724.744 673.912 726.271 677.014 729.325C680.115 732.356 681.666 737.079 681.666 743.494V780H673.285V743.494C673.285 739.47 672.184 736.593 669.982 734.865C667.781 733.137 665.188 732.273 662.205 732.273C658.37 732.273 655.399 733.433 653.292 735.753C651.185 738.049 650.132 740.961 650.132 744.489V780H641.609V742.642C641.609 739.541 640.603 737.043 638.59 735.149C636.578 733.232 633.986 732.273 630.813 732.273C628.635 732.273 626.599 732.853 624.705 734.013C622.835 735.173 621.32 736.783 620.16 738.842C619.024 740.878 618.455 743.234 618.455 745.909V780H610.075ZM735.625 737.67L728.097 739.801C727.623 738.546 726.925 737.327 726.002 736.143C725.102 734.936 723.871 733.942 722.308 733.161C720.746 732.379 718.745 731.989 716.307 731.989C712.969 731.989 710.187 732.758 707.962 734.297C705.76 735.812 704.659 737.741 704.659 740.085C704.659 742.169 705.417 743.814 706.932 745.021C708.447 746.229 710.815 747.235 714.034 748.04L722.131 750.028C727.008 751.212 730.642 753.023 733.033 755.462C735.424 757.876 736.619 760.99 736.619 764.801C736.619 767.926 735.72 770.72 733.921 773.182C732.145 775.644 729.659 777.585 726.463 779.006C723.267 780.426 719.55 781.136 715.313 781.136C709.749 781.136 705.145 779.929 701.499 777.514C697.853 775.099 695.545 771.572 694.574 766.932L702.529 764.943C703.286 767.879 704.718 770.08 706.825 771.548C708.956 773.016 711.738 773.75 715.171 773.75C719.077 773.75 722.178 772.921 724.475 771.264C726.795 769.583 727.955 767.571 727.955 765.227C727.955 763.333 727.292 761.747 725.966 760.469C724.64 759.167 722.604 758.196 719.858 757.557L710.767 755.426C705.772 754.242 702.102 752.408 699.759 749.922C697.439 747.412 696.279 744.276 696.279 740.511C696.279 737.434 697.143 734.711 698.871 732.344C700.623 729.976 703.002 728.118 706.009 726.768C709.039 725.419 712.472 724.744 716.307 724.744C721.705 724.744 725.942 725.928 729.02 728.295C732.121 730.663 734.323 733.788 735.625 737.67Z" fill="white"/>
</svg>
