<svg width="60" height="68" viewBox="0 0 60 68" fill="none" xmlns="http://www.w3.org/2000/svg">
<path d="M30 68C29.0872 68.0003 28.1905 67.7591 27.3999 67.3006L19.1261 62.3778C17.8913 61.6832 18.493 61.4379 18.9013 61.2946C20.2146 60.8869 21.472 60.3158 22.6444 59.5946C22.7425 59.549 22.8506 59.5293 22.9584 59.5373C23.0663 59.5454 23.1703 59.581 23.2606 59.6407L29.6182 63.4366C29.7366 63.4996 29.8685 63.5325 30.0024 63.5325C30.1364 63.5325 30.2683 63.4996 30.3866 63.4366L55.1792 49.0544C55.2952 48.9846 55.3912 48.8856 55.4577 48.7673C55.5242 48.6489 55.559 48.5152 55.5586 48.3793V19.61C55.5587 19.472 55.5234 19.3362 55.4561 19.2158C55.3888 19.0954 55.2918 18.9945 55.1744 18.9227L30.3818 4.55269C30.2649 4.48652 30.133 4.45175 29.9988 4.45175C29.8646 4.45175 29.7327 4.48652 29.6158 4.55269L4.83771 18.9276C4.71952 18.9979 4.62138 19.0976 4.5528 19.2171C4.48422 19.3367 4.44752 19.472 4.44625 19.61V48.3672C4.44659 48.5028 4.48279 48.6359 4.55116 48.7528C4.61952 48.8697 4.71758 48.9663 4.8353 49.0326L11.6351 52.9766C15.3202 54.8272 17.5771 52.6464 17.5771 50.4558V22.0629C17.5771 21.9673 17.5959 21.8725 17.6323 21.7841C17.6687 21.6957 17.7221 21.6154 17.7895 21.5477C17.8568 21.4801 17.9367 21.4264 18.0246 21.3898C18.1126 21.3532 18.2069 21.3344 18.3021 21.3344H21.4434C21.6357 21.3344 21.8201 21.4111 21.956 21.5477C22.092 21.6844 22.1684 21.8697 22.1684 22.0629V50.4582C22.1684 55.4004 19.4909 58.2297 14.8272 58.2297C12.8153 58.2649 10.8348 57.7242 9.11721 56.6706L2.6001 52.9135C1.80893 52.4505 1.15245 51.7869 0.696209 50.9892C0.239965 50.1914 -8.75872e-05 49.2873 1.71852e-05 48.3672V19.61C-0.00233445 18.6885 0.236702 17.7825 0.693107 16.9832C1.14951 16.1838 1.80721 15.5193 2.6001 15.0564L27.3951 0.669351C28.1938 0.23018 29.0896 0 30 0C30.9104 0 31.8062 0.23018 32.6049 0.669351L57.3975 15.0564C58.1886 15.5186 58.8452 16.1811 59.3019 16.978C59.7585 17.7749 59.9993 18.6783 60 19.5979V48.3672C59.9986 49.2873 59.7577 50.1911 59.3012 50.9886C58.8446 51.7862 58.1883 52.4498 57.3975 52.9135L32.6049 67.3006C31.8129 67.7598 30.9144 68.0011 30 68Z" fill="#83CD29"/>
<path d="M25.2976 38.7426C25.2976 38.5494 25.374 38.3641 25.51 38.2275C25.6459 38.0908 25.8303 38.0141 26.0226 38.0141H29.2292C29.4005 38.0146 29.5661 38.0762 29.6966 38.1877C29.8271 38.2993 29.914 38.4538 29.942 38.6236C30.4253 41.9047 31.8752 43.5586 38.4309 43.5586C43.6529 43.5586 45.8784 42.371 45.8784 39.5854C45.8784 37.9801 45.2477 36.7876 37.1309 35.9886C30.3456 35.3135 26.1506 33.8029 26.1506 28.3531C26.1506 23.3259 30.3673 20.3265 37.4354 20.3265C45.3782 20.3265 49.3097 23.0976 49.8075 29.0428C49.8151 29.1421 49.8024 29.2418 49.7701 29.336C49.7379 29.4301 49.6868 29.5166 49.62 29.5901C49.5532 29.6636 49.4721 29.7225 49.3818 29.7633C49.2914 29.8041 49.1937 29.8259 49.0947 29.8272H45.8663C45.7043 29.825 45.5478 29.7682 45.4217 29.6661C45.2955 29.564 45.2071 29.4224 45.1704 29.2638C44.3995 25.8128 42.5123 24.7102 37.4378 24.7102C31.735 24.7102 31.0729 26.7065 31.0729 28.2025C31.0729 30.0142 31.8558 30.5437 39.5546 31.5661C47.1736 32.5788 50.7934 34.0117 50.7934 39.3935C50.7934 44.8239 46.2892 47.9325 38.4334 47.9325C27.5715 47.9471 25.2976 42.9417 25.2976 38.7426Z" fill="#83CD29"/>
</svg>
