<svg width="307" height="219" viewBox="0 0 307 219" fill="none" xmlns="http://www.w3.org/2000/svg">
<path d="M151.767 218.368C150.728 218.368 149.758 218.046 148.857 217.482L139.64 211.114C138.254 210.227 138.947 209.905 139.363 209.743C141.234 209.018 141.581 208.856 143.521 207.567C143.729 207.406 144.007 207.486 144.214 207.648L151.283 212.565C151.56 212.726 151.906 212.726 152.114 212.565L179.764 193.944C180.041 193.783 180.18 193.46 180.18 193.058V155.897C180.18 155.494 180.041 155.172 179.764 155.01L152.114 136.471C151.837 136.309 151.49 136.309 151.283 136.471L123.633 155.01C123.356 155.171 123.217 155.574 123.217 155.897V193.057C123.217 193.38 123.356 193.782 123.633 193.944L131.186 199.022C135.275 201.44 137.839 198.619 137.839 195.798V159.121C137.839 158.638 138.185 158.154 138.67 158.154H142.204C142.62 158.154 143.036 158.557 143.036 159.121V195.798C143.036 202.166 140.056 205.874 134.859 205.874C133.265 205.874 132.018 205.874 128.483 203.858L121.207 199.022C119.406 197.814 118.297 195.556 118.297 193.138V155.978C118.297 153.56 119.406 151.302 121.207 150.093L148.857 131.473C150.59 130.344 152.946 130.344 154.678 131.473L182.328 150.093C184.13 151.302 185.239 153.56 185.239 155.978V193.138C185.239 195.556 184.13 197.814 182.328 199.022L154.678 217.643C153.777 218.127 152.737 218.368 151.767 218.368ZM160.292 192.816C148.165 192.816 145.67 186.367 145.67 180.886C145.67 180.402 146.017 179.918 146.502 179.918H150.105C150.521 179.918 150.867 180.241 150.867 180.725C151.422 184.996 153.016 187.092 160.361 187.092C166.182 187.092 168.677 185.561 168.677 181.933C168.677 179.837 167.984 178.306 158.906 177.258C151.352 176.371 146.64 174.437 146.64 167.424C146.64 160.895 151.353 157.025 159.252 157.025C168.122 157.025 172.488 160.572 173.043 168.31C173.043 168.553 172.974 168.794 172.835 169.036C172.696 169.197 172.488 169.358 172.28 169.358H168.677C168.33 169.358 167.984 169.036 167.915 168.633C167.083 164.2 164.935 162.748 159.252 162.748C152.877 162.748 152.114 165.328 152.114 167.262C152.114 169.6 153.016 170.326 161.608 171.615C170.132 172.905 174.152 174.759 174.152 181.691C174.082 188.785 169.093 192.816 160.292 192.816Z" fill="#539E43"/>
<path d="M65.9765 73.0317C65.9765 71.581 65.2834 70.2098 64.1748 69.4844L34.7924 49.8163C34.3068 49.4934 33.7527 49.3322 33.1987 49.2513H32.9211C32.3671 49.2513 31.8125 49.4934 31.3274 49.8163L1.94508 69.4844C0.835837 70.2098 0.143311 71.5803 0.143311 73.0317L0.212863 125.91C0.212863 126.636 0.559426 127.361 1.11345 127.684C1.66807 128.087 2.3606 128.087 2.84626 127.684L20.3093 116.076C21.418 115.351 22.1111 113.98 22.1111 112.53V87.7828C22.1111 86.3321 22.8036 84.9616 23.9129 84.2362L31.3274 79.2383C31.882 78.8352 32.5056 78.6734 33.1292 78.6734C33.7527 78.6734 34.3763 78.8352 34.862 79.2383L42.2765 84.2362C43.3858 84.9616 44.0783 86.3314 44.0783 87.7828V112.53C44.0783 113.98 44.7714 115.351 45.8801 116.076L63.3431 127.684C63.6129 127.882 63.9252 127.986 64.244 127.986C64.5628 127.986 64.8751 127.882 65.1449 127.684C65.6995 127.361 66.0461 126.636 66.0461 125.91L65.9765 73.0317ZM207.206 0.242068C206.652 -0.0808522 205.959 -0.0808522 205.473 0.242068C204.919 0.645196 204.572 1.28964 204.572 2.01499V54.4111C204.572 54.8944 204.365 55.3778 203.949 55.7007C203.533 55.942 203.117 55.942 202.702 55.7007L195.356 50.7836C194.818 50.427 194.209 50.2394 193.589 50.2394C192.969 50.2394 192.36 50.427 191.822 50.7836L162.439 70.5327C161.331 71.2581 160.637 72.6285 160.637 74.0792V113.496C160.637 114.947 161.331 116.318 162.439 117.044L191.822 136.793C192.36 137.149 192.969 137.337 193.589 137.337C194.209 137.337 194.818 137.149 195.356 136.793L224.738 117.044C225.847 116.318 226.54 114.948 226.54 113.496V15.2352C226.54 13.7036 225.847 12.3338 224.738 11.6077L207.206 0.242068ZM204.503 100.519C204.503 100.922 204.365 101.244 204.087 101.405L194.039 108.176C193.899 108.256 193.745 108.297 193.589 108.297C193.433 108.297 193.279 108.256 193.138 108.176L183.09 101.405C182.813 101.244 182.674 100.841 182.674 100.519V86.9765C182.674 86.5734 182.813 86.2512 183.09 86.0901L193.138 79.3185C193.279 79.2389 193.433 79.1975 193.589 79.1975C193.745 79.1975 193.899 79.2389 194.039 79.3185L204.087 86.0901C204.365 86.2505 204.503 86.6543 204.503 86.9765V100.519ZM304.985 86.6543C306.094 85.929 306.718 84.5585 306.718 83.1071V73.515C306.718 72.0643 306.025 70.6938 304.985 69.9685L275.811 50.3003C275.272 49.9436 274.663 49.7561 274.044 49.7561C273.424 49.7561 272.815 49.9436 272.276 50.3003L242.894 70.0487C241.785 70.774 241.092 72.1445 241.092 73.5952V113.013C241.092 114.464 241.785 115.834 242.894 116.56L272.068 135.906C273.178 136.631 274.494 136.631 275.534 135.906L293.204 124.46C293.759 124.137 294.106 123.412 294.106 122.687C294.106 121.961 293.759 121.236 293.204 120.913L263.684 101.164C263.129 100.761 262.782 100.117 262.782 99.3912V87.0581C262.782 86.3328 263.129 85.6074 263.684 85.2845L272.9 79.1581C273.17 78.9606 273.482 78.8558 273.801 78.8558C274.12 78.8558 274.432 78.9606 274.702 79.1581L283.919 85.2845C284.473 85.6876 284.819 86.3321 284.819 87.0581V96.7311C284.819 97.4564 285.166 98.1818 285.72 98.504C285.99 98.7016 286.303 98.8064 286.621 98.8064C286.94 98.8064 287.252 98.7016 287.522 98.504L304.985 86.6543Z" fill="#333333"/>
<path d="M273.593 84.7998C273.696 84.7209 273.816 84.6788 273.94 84.6788C274.063 84.6788 274.183 84.7209 274.286 84.7998L279.9 88.5883C280.107 88.7501 280.246 88.9915 280.246 89.3137V96.8915C280.246 97.2137 280.108 97.4558 279.9 97.6169L274.286 101.405C274.183 101.484 274.063 101.526 273.94 101.526C273.816 101.526 273.696 101.484 273.593 101.405L267.98 97.6169C267.772 97.4558 267.634 97.2137 267.634 96.8915V89.3144C267.634 88.9915 267.772 88.7494 267.98 88.589L273.593 84.7998Z" fill="#539E43"/>
<path d="M115.109 50.4614C114.57 50.1048 113.961 49.9174 113.342 49.9174C112.722 49.9174 112.113 50.1048 111.575 50.4614L82.4005 70.0479C81.2913 70.7733 80.6677 72.1438 80.6677 73.5945V112.851C80.6677 114.302 81.3609 115.672 82.4005 116.398L111.575 135.986C112.113 136.342 112.722 136.53 113.342 136.53C113.961 136.53 114.57 136.342 115.109 135.986L144.284 116.398C145.392 115.672 146.016 114.302 146.016 112.851V73.5952C146.016 72.1445 145.323 70.774 144.284 70.0486L115.109 50.4614Z" fill="url(#paint0_linear_135_71)"/>
<mask id="mask0_135_71" style="mask-type:luminance" maskUnits="userSpaceOnUse" x="80" y="49" width="67" height="88">
<path d="M115.109 50.4614C114.57 50.1048 113.961 49.9174 113.342 49.9174C112.722 49.9174 112.113 50.1048 111.575 50.4614L82.4005 70.0479C81.2913 70.7733 80.6677 72.1438 80.6677 73.5945V112.851C80.6677 114.302 81.3609 115.672 82.4005 116.398L111.575 135.986C112.113 136.342 112.722 136.53 113.342 136.53C113.961 136.53 114.57 136.342 115.109 135.986L144.284 116.398C145.392 115.672 146.016 114.302 146.016 112.851V73.5952C146.016 72.1445 145.323 70.774 144.284 70.0486L115.109 50.4614Z" fill="white"/>
</mask>
<g mask="url(#mask0_135_71)">
<path d="M144.353 70.0487L115.04 50.4615C114.752 50.2923 114.45 50.1572 114.139 50.0583L81.2913 115.513C81.5634 115.899 81.892 116.227 82.262 116.48L111.575 136.068C112.406 136.632 113.377 136.794 114.277 136.471L145.115 70.8557C144.907 70.5335 144.63 70.29 144.353 70.0487Z" fill="url(#paint1_linear_135_71)"/>
</g>
<mask id="mask1_135_71" style="mask-type:luminance" maskUnits="userSpaceOnUse" x="80" y="49" width="67" height="88">
<path d="M115.109 50.4614C114.57 50.1048 113.961 49.9174 113.342 49.9174C112.722 49.9174 112.113 50.1048 111.575 50.4614L82.4005 70.0479C81.2913 70.7733 80.6677 72.1438 80.6677 73.5945V112.851C80.6677 114.302 81.3609 115.672 82.4005 116.398L111.575 135.986C112.113 136.342 112.722 136.53 113.342 136.53C113.961 136.53 114.57 136.342 115.109 135.986L144.284 116.398C145.392 115.672 146.016 114.302 146.016 112.851V73.5952C146.016 72.1445 145.323 70.774 144.284 70.0486L115.109 50.4614Z" fill="white"/>
</mask>
<g mask="url(#mask1_135_71)">
<path fill-rule="evenodd" clip-rule="evenodd" d="M144.422 116.399C145.254 115.834 145.877 114.867 146.155 113.819L114 49.9774C113.168 49.8163 112.267 49.8965 111.505 50.4608L82.3999 69.9685L113.791 136.551C114.248 136.464 114.691 136.301 115.108 136.067L144.422 116.399Z" fill="url(#paint2_linear_135_71)"/>
<path fill-rule="evenodd" clip-rule="evenodd" d="M144.422 116.399L115.178 135.987C114.765 136.231 114.32 136.395 113.862 136.47L114.416 137.679L146.847 115.835V115.351L146.016 113.739C145.877 114.867 145.254 115.834 144.422 116.399Z" fill="url(#paint3_linear_135_71)"/>
<path fill-rule="evenodd" clip-rule="evenodd" d="M144.422 116.399L115.178 135.987C114.765 136.231 114.32 136.395 113.862 136.47L114.416 137.679L146.847 115.835V115.351L146.016 113.739C145.877 114.867 145.254 115.834 144.422 116.399Z" fill="url(#paint4_linear_135_71)"/>
</g>
<defs>
<linearGradient id="paint0_linear_135_71" x1="4536.67" y1="1564.51" x2="609.549" y2="6869.35" gradientUnits="userSpaceOnUse">
<stop stop-color="#41873F"/>
<stop offset="0.3288" stop-color="#418B3D"/>
<stop offset="0.6352" stop-color="#419637"/>
<stop offset="0.9319" stop-color="#3FA92D"/>
<stop offset="1" stop-color="#3FAE2A"/>
</linearGradient>
<linearGradient id="paint1_linear_135_71" x1="2843.4" y1="4826.42" x2="11358.5" y2="849.272" gradientUnits="userSpaceOnUse">
<stop offset="0.1376" stop-color="#41873F"/>
<stop offset="0.4032" stop-color="#54A044"/>
<stop offset="0.7136" stop-color="#66B848"/>
<stop offset="0.9081" stop-color="#6CC04A"/>
</linearGradient>
<linearGradient id="paint2_linear_135_71" x1="-197.421" y1="4381.98" x2="6553.47" y2="4381.98" gradientUnits="userSpaceOnUse">
<stop offset="0.09192" stop-color="#6CC04A"/>
<stop offset="0.2864" stop-color="#66B848"/>
<stop offset="0.5968" stop-color="#54A044"/>
<stop offset="0.8624" stop-color="#41873F"/>
</linearGradient>
<linearGradient id="paint3_linear_135_71" x1="-3312.08" y1="1317.36" x2="3438.74" y2="1317.36" gradientUnits="userSpaceOnUse">
<stop offset="0.09192" stop-color="#6CC04A"/>
<stop offset="0.2864" stop-color="#66B848"/>
<stop offset="0.5968" stop-color="#54A044"/>
<stop offset="0.8624" stop-color="#41873F"/>
</linearGradient>
<linearGradient id="paint4_linear_135_71" x1="4422.24" y1="-4939.41" x2="2136.52" y2="5357.15" gradientUnits="userSpaceOnUse">
<stop stop-color="#41873F"/>
<stop offset="0.3288" stop-color="#418B3D"/>
<stop offset="0.6352" stop-color="#419637"/>
<stop offset="0.9319" stop-color="#3FA92D"/>
<stop offset="1" stop-color="#3FAE2A"/>
</linearGradient>
</defs>
</svg>
