<svg width="261" height="234" viewBox="0 0 261 234" fill="none" xmlns="http://www.w3.org/2000/svg">
<path d="M0 117C0 150.99 58.4273 178.547 130.5 178.547C202.573 178.547 261 150.99 261 117C261 83.0097 202.571 55.4525 130.5 55.4525C58.4273 55.4525 0 83.0097 0 117Z" fill="url(#paint0_radial_135_60)"/>
<path d="M130.5 173.977C199.757 173.977 255.902 148.466 255.902 117C255.902 85.5307 199.757 60.0228 130.5 60.0228C61.2432 60.0228 5.09766 85.5307 5.09766 117C5.09766 148.466 61.2432 173.977 130.5 173.977Z" fill="#777BB3"/>
<path d="M70.9022 124.064C76.5973 124.064 80.8467 123.122 83.5362 121.267C86.1992 119.428 88.0364 116.245 89.0009 111.806C89.8981 107.656 89.5555 104.761 87.9814 103.196C86.3746 101.598 82.898 100.788 77.6494 100.788H68.5471L63.5044 124.064H70.9022ZM41.1339 152.734C40.9251 152.734 40.7189 152.692 40.5301 152.612C40.3414 152.532 40.1748 152.416 40.0422 152.271C39.9097 152.126 39.8145 151.957 39.7635 151.775C39.7125 151.594 39.707 151.404 39.7473 151.221L53.1175 89.5434C53.1807 89.2551 53.3534 88.9953 53.6062 88.8083C53.859 88.6213 54.1763 88.5187 54.504 88.5178H83.3241C92.3816 88.5178 99.1228 90.7225 103.362 95.0717C107.62 99.4409 108.937 105.554 107.271 113.234C106.592 116.362 105.426 119.267 103.804 121.87C102.117 124.548 99.9639 126.967 97.4263 129.036C94.3045 131.654 90.7708 133.556 86.9312 134.672C83.1549 135.777 78.3019 136.336 72.5151 136.336H60.8435L57.5116 151.707C57.4487 151.996 57.2756 152.257 57.0219 152.444C56.7682 152.632 56.4497 152.734 56.121 152.734H41.1339Z" fill="black"/>
<path d="M69.7157 102.057H77.6497C83.9851 102.057 86.1852 103.304 86.9335 104.048C88.1712 105.28 88.4078 107.881 87.6085 111.565C86.7133 115.691 85.0535 118.618 82.6739 120.26C80.2393 121.941 76.2754 122.793 70.9024 122.793H65.2216L69.7157 102.057ZM83.3244 87.2491H54.5063C53.8491 87.2492 53.2124 87.454 52.7051 87.8285C52.1977 88.203 51.8513 88.7239 51.725 89.3021L38.3549 150.981C38.2759 151.349 38.2885 151.727 38.3915 152.09C38.4946 152.452 38.6857 152.79 38.9512 153.079C39.2167 153.367 39.5501 153.6 39.9274 153.76C40.3048 153.919 40.7168 154.003 41.1342 154.003H56.1213C56.7784 154.003 57.4149 153.797 57.9218 153.423C58.4288 153.048 58.7748 152.527 58.9005 151.948L62.0101 137.605H72.5133C78.451 137.605 83.4508 137.024 87.3719 135.879C91.4032 134.705 95.1122 132.715 98.3951 129.961C101.038 127.803 103.282 125.281 105.04 122.49C106.735 119.771 107.954 116.737 108.66 113.475C110.413 105.39 108.988 98.9162 104.427 94.2362C99.9081 89.5983 92.8081 87.2473 83.3244 87.2473V87.2491ZM61.7858 125.331H70.9024C76.9442 125.331 81.4444 124.313 84.401 122.269C87.3597 120.229 89.3519 116.821 90.3918 112.048C91.3807 107.463 90.9301 104.229 89.0358 102.344C87.1374 100.461 83.3448 99.5177 77.6497 99.5177H67.381L61.7858 125.331ZM83.3264 89.7829C91.9965 89.7829 98.3197 91.8249 102.296 95.9035C106.272 99.9839 107.467 105.678 105.885 112.989C105.228 116.002 104.125 118.755 102.571 121.249C101.013 123.746 98.9824 126.027 96.4723 128.099C93.4789 130.609 90.1573 132.398 86.4972 133.464C82.8391 134.532 78.1778 135.064 72.5153 135.064H59.6774L56.1233 151.462H41.1362L54.5084 89.7829H83.3264Z" fill="white"/>
<path d="M141.631 136.336C141.422 136.336 141.216 136.295 141.027 136.215C140.838 136.135 140.671 136.019 140.538 135.875C140.405 135.73 140.309 135.561 140.258 135.379C140.206 135.198 140.201 135.008 140.241 134.824L146.154 107.534C146.719 104.938 146.58 103.077 145.766 102.287C145.267 101.806 143.77 101 139.343 101H128.626L121.192 135.31C121.128 135.599 120.954 135.859 120.7 136.046C120.446 136.233 120.127 136.335 119.799 136.334H104.934C104.725 136.334 104.519 136.293 104.33 136.213C104.141 136.134 103.974 136.018 103.841 135.873C103.708 135.729 103.612 135.56 103.56 135.379C103.509 135.197 103.502 135.008 103.542 134.824L116.914 73.1451C116.977 72.8561 117.15 72.5959 117.404 72.4088C117.658 72.2218 117.976 72.1195 118.304 72.1195H133.169C133.378 72.1194 133.584 72.1606 133.773 72.2403C133.962 72.32 134.129 72.4361 134.262 72.5804C134.395 72.7247 134.491 72.8935 134.543 73.0749C134.595 73.2563 134.601 73.4457 134.562 73.6295L131.336 88.5178H142.863C151.645 88.5178 157.599 89.9035 161.068 92.7609C164.601 95.6731 165.706 100.329 164.346 106.605L158.125 135.31C158.061 135.599 157.888 135.859 157.634 136.046C157.381 136.232 157.063 136.334 156.735 136.334L141.631 136.336Z" fill="black"/>
<path d="M133.171 70.849H118.305C117.647 70.8491 117.01 71.0542 116.503 71.429C115.995 71.8039 115.649 72.3253 115.523 72.9038L102.153 134.581C102.074 134.949 102.086 135.327 102.189 135.69C102.292 136.053 102.483 136.391 102.749 136.68C103.014 136.969 103.348 137.201 103.725 137.361C104.103 137.521 104.515 137.604 104.932 137.605H119.799C120.457 137.605 121.094 137.4 121.601 137.025C122.108 136.65 122.455 136.129 122.58 135.55L129.793 102.269H139.34C143.76 102.269 144.69 103.115 144.725 103.154C144.994 103.41 145.347 104.607 144.763 107.293L138.85 134.581C138.771 134.949 138.783 135.328 138.886 135.691C138.989 136.053 139.18 136.392 139.446 136.68C139.712 136.969 140.046 137.202 140.423 137.362C140.801 137.522 141.214 137.605 141.631 137.605H156.737C157.394 137.604 158.03 137.399 158.537 137.024C159.044 136.649 159.39 136.128 159.516 135.55L165.737 106.848C167.195 100.11 165.947 95.057 162.026 91.8267C158.282 88.7445 152.014 87.2473 142.863 87.2473H133.055L135.953 73.8745C136.032 73.5067 136.02 73.1277 135.917 72.7645C135.815 72.4014 135.623 72.0631 135.358 71.774C135.092 71.4848 134.758 71.2519 134.38 71.092C134.002 70.9321 133.589 70.8491 133.171 70.849ZM133.171 73.3901L129.617 89.7847H142.863C151.197 89.7847 156.947 91.09 160.107 93.6969C163.274 96.3038 164.22 100.525 162.958 106.366L156.735 135.066H141.631L147.547 107.775C148.22 104.671 147.971 102.554 146.803 101.424C145.634 100.296 143.146 99.7315 139.344 99.7315H127.458L119.799 135.064H104.93L118.303 73.3846H133.171V73.3901Z" fill="white"/>
<path d="M187.871 124.064C193.566 124.064 197.817 123.122 200.509 121.267C203.168 119.428 205.007 116.245 205.972 111.806C206.869 107.656 206.528 104.761 204.952 103.196C203.345 101.598 199.869 100.788 194.62 100.788H185.52L180.473 124.064H187.871ZM158.109 152.734C157.899 152.735 157.693 152.693 157.504 152.613C157.314 152.534 157.147 152.417 157.014 152.272C156.881 152.128 156.786 151.958 156.734 151.776C156.683 151.594 156.678 151.405 156.718 151.221L170.088 89.5434C170.151 89.2545 170.325 88.9942 170.578 88.8071C170.832 88.6201 171.15 88.5178 171.479 88.5178H200.297C209.354 88.5178 216.096 90.7225 220.333 95.0717C224.592 99.4409 225.907 105.554 224.242 113.234C223.605 116.259 222.436 119.174 220.777 121.87C219.089 124.547 216.936 126.966 214.399 129.036C211.279 131.654 207.741 133.556 203.904 134.672C200.128 135.777 195.275 136.336 189.486 136.336H177.816L174.486 151.707C174.423 151.997 174.25 152.257 173.996 152.445C173.742 152.632 173.423 152.735 173.094 152.734H158.109Z" fill="black"/>
<path d="M186.686 102.057H194.62C200.956 102.057 203.156 103.304 203.902 104.048C205.146 105.28 205.378 107.881 204.581 111.565C203.684 115.691 202.024 118.618 199.645 120.26C197.208 121.941 193.244 122.793 187.873 122.793H182.192L186.686 102.057ZM200.295 87.2491H171.477C170.82 87.2496 170.184 87.4546 169.677 87.8291C169.17 88.2035 168.824 88.7242 168.698 89.3021L155.326 150.981C155.247 151.349 155.259 151.727 155.362 152.09C155.466 152.453 155.657 152.791 155.923 153.079C156.188 153.368 156.522 153.601 156.899 153.76C157.277 153.92 157.689 154.003 158.107 154.003H173.094C173.751 154.003 174.388 153.797 174.895 153.423C175.402 153.048 175.747 152.527 175.873 151.948L178.983 137.605H189.484C195.42 137.605 200.422 137.024 204.341 135.879C208.374 134.705 212.083 132.715 215.368 129.96C218.01 127.801 220.253 125.28 222.011 122.49C223.708 119.771 224.923 116.737 225.63 113.475C227.384 105.39 225.961 98.9162 221.397 94.2362C216.879 89.5983 209.781 87.2473 200.293 87.2473L200.295 87.2491ZM178.756 125.331H187.871C193.915 125.331 198.413 124.313 201.374 122.269C204.33 120.229 206.325 116.821 207.36 112.048C208.353 107.463 207.903 104.229 206.004 102.344C204.108 100.461 200.313 99.5177 194.62 99.5177H184.354L178.756 125.331ZM200.295 89.7829C208.963 89.7829 215.29 91.8249 219.264 95.9035C223.241 99.9839 224.438 105.678 222.851 112.989C222.199 116.002 221.094 118.755 219.54 121.249C217.984 123.746 215.951 126.027 213.439 128.099C210.448 130.609 207.124 132.398 203.464 133.464C199.808 134.532 195.149 135.064 189.484 135.064H176.648L173.09 151.462H158.103L171.475 89.7829H200.295Z" fill="white"/>
<defs>
<radialGradient id="paint0_radial_135_60" cx="0" cy="0" r="1" gradientUnits="userSpaceOnUse" gradientTransform="translate(78.353 77.0902) scale(171.366 153.638)">
<stop stop-color="#AEB2D5"/>
<stop offset="0.3" stop-color="#AEB2D5"/>
<stop offset="0.75" stop-color="#484C89"/>
<stop offset="1" stop-color="#484C89"/>
</radialGradient>
</defs>
</svg>
