<svg width="227" height="244" viewBox="0 0 227 244" fill="none" xmlns="http://www.w3.org/2000/svg">
<path d="M166.364 175.589C167.756 163.135 167.34 161.307 175.969 163.326L178.159 163.532C184.796 163.856 193.477 162.384 198.577 159.837C209.556 154.361 216.065 145.22 205.242 147.62C180.548 153.097 178.851 144.109 178.851 144.109C204.926 102.524 215.826 49.7341 206.416 36.8117C180.754 1.567 136.335 18.2333 135.592 18.6642L135.354 18.7118C130.475 17.6233 125.015 16.9733 118.881 16.8666C107.706 16.6683 99.2273 20.0157 92.7951 25.2579C92.7951 25.2579 13.5526 -9.83428 17.2395 69.3895C18.0234 86.2426 39.7125 196.914 65.5834 163.486C75.0394 151.263 84.1762 140.927 84.1762 140.927C88.7126 144.166 94.1464 145.821 99.8427 145.226L100.284 144.822C100.146 146.339 100.206 147.824 100.46 149.582C93.7971 157.586 95.7549 158.991 82.4311 161.938C68.9494 164.923 76.8696 170.24 82.0392 171.629C88.3083 173.314 102.81 175.701 112.61 160.958L112.22 162.639C114.834 164.889 114.658 178.799 115.027 188.736C115.398 198.675 116.016 207.949 117.902 213.418C119.787 218.885 122.011 232.969 139.522 228.935C154.156 225.572 165.345 220.721 166.364 175.589Z" fill="black"/>
<path d="M133.82 238.769C126.075 238.769 121.032 235.55 117.969 232.44C113.346 227.751 111.512 221.71 110.416 218.102L109.942 216.596C107.736 210.195 106.988 200.978 106.545 189.109C106.477 187.327 106.431 185.491 106.38 183.545C106.342 182.121 106.296 180.335 106.229 178.467C103.439 179.897 100.477 180.903 97.429 181.456C91.9686 182.459 86.0985 182.135 79.9784 180.489C75.6601 179.329 71.1733 176.923 68.616 173.208C61.1622 180.224 54.0525 179.273 50.1793 177.884C43.3463 175.434 37.2315 168.551 31.4838 156.844C27.3889 148.504 23.4288 137.639 19.7117 124.547C13.2386 101.748 9.12603 77.7349 8.76071 69.8507C7.61152 45.1743 13.7919 27.5262 27.1264 17.4021C48.1612 1.43154 80.0316 10.8236 91.6512 15.0879C99.4579 10.0306 108.642 7.56967 119.021 7.74695C124.595 7.84417 129.902 8.37029 134.833 9.31579C139.976 7.57729 150.134 5.08201 161.762 5.23832C183.187 5.51282 200.941 14.4875 213.102 31.1919C221.781 43.1098 217.489 68.1369 214.16 81.9954C209.475 101.489 201.266 122.221 191.182 140.269C193.92 140.29 197.887 139.938 203.527 138.685C214.653 136.217 217.908 142.629 218.791 145.5C222.329 157.018 206.949 165.722 202.152 168.116C196.006 171.183 185.984 173.051 177.776 172.647L177.418 172.622L175.262 172.418L175.049 174.351L174.843 176.24C174.292 199.113 171.252 213.599 164.997 223.17C158.441 233.205 149.329 236.017 141.302 237.866C138.564 238.495 136.076 238.769 133.82 238.769ZM117.522 155.521C122.521 159.822 122.959 167.914 123.351 183.036C123.401 184.923 123.447 186.71 123.509 188.377C123.697 193.429 124.139 205.257 125.863 210.256C126.106 210.963 126.324 211.679 126.554 212.44C128.475 218.761 129.438 221.931 137.743 220.023C144.714 218.416 148.298 216.975 151.104 212.682C155.181 206.441 157.462 193.887 157.88 175.367L166.363 175.588L157.939 174.502L158.187 172.241C158.994 164.788 159.576 159.404 164.21 155.844C167.929 152.988 172.165 153.264 175.54 153.918C171.832 150.906 170.807 147.374 170.534 145.925L169.826 142.18L171.814 139.009C183.265 120.748 192.707 98.3034 197.722 77.4299C202.876 55.9827 201.305 44.5929 199.733 42.4388C178.933 13.8698 142.863 25.6657 139.096 27.0039L138.459 27.3737L135.267 28.0123L133.632 27.6482C129.124 26.6417 124.116 26.0851 118.748 25.9917C110.313 25.8392 103.508 27.9818 97.9292 32.532L94.0577 35.6869L89.5656 33.6986C79.9678 29.4801 51.7772 20.9992 36.9016 32.3242C28.6445 38.611 24.883 50.9292 25.7201 68.9376C25.9967 74.8832 29.7547 97.3903 35.9546 119.219C44.5221 149.385 52.3075 159.406 55.5582 160.571C56.1257 160.777 57.5976 159.547 59.0625 157.656C65.1702 149.786 71.4948 142.113 78.0276 134.648L82.9401 129.091L88.8793 133.333C91.2734 135.043 93.9141 136.013 96.6257 136.196L110.79 123.21L108.738 145.719C108.692 146.225 108.669 146.913 108.854 148.19L109.471 152.456L106.793 155.674L106.484 156.047L114.266 159.908L117.522 155.521Z" fill="black"/>
<path d="M205.241 147.62C180.546 153.097 178.849 144.109 178.849 144.109C204.924 102.522 215.824 49.7302 206.417 36.8115C180.756 1.5688 136.333 18.2351 135.591 18.6679L135.352 18.7136C130.473 17.6251 125.013 16.977 118.875 16.8703C107.701 16.6739 99.2254 20.0194 92.7931 25.2616C92.7931 25.2616 13.5488 -9.82867 17.234 69.3932C18.0179 86.2482 39.707 196.919 65.5779 163.491C75.0339 151.269 84.1689 140.933 84.1689 140.933C88.7071 144.172 94.1392 145.826 99.8337 145.231L100.277 144.827C100.139 146.345 100.203 147.83 100.454 149.587C93.7898 157.592 95.7477 158.996 82.4238 161.944C68.9422 164.929 76.8623 170.245 82.0337 171.635C88.301 173.32 102.804 175.707 112.602 160.964L112.21 162.645C114.823 164.894 116.656 177.27 116.35 188.488C116.041 199.706 115.835 207.409 117.894 213.426C119.952 219.442 122.002 232.976 139.516 228.942C154.151 225.572 161.734 216.836 162.791 202.265C163.539 191.904 165.233 193.437 165.341 184.174L166.701 179.79C168.269 165.746 166.949 161.217 175.967 163.324L178.158 163.53C184.794 163.854 193.478 162.382 198.577 159.835C209.554 154.362 216.065 145.22 205.241 147.62Z" fill="#336791"/>
<path d="M134.705 233.148C120.106 233.148 115.481 220.721 113.588 215.639C110.818 208.191 110.221 179.289 110.838 155.586C110.847 155.186 110.93 154.793 111.081 154.427C111.232 154.062 111.45 153.733 111.72 153.458C111.99 153.183 112.308 152.969 112.656 152.827C113.004 152.685 113.375 152.619 113.746 152.632C114.118 152.642 114.484 152.732 114.823 152.895C115.162 153.058 115.468 153.291 115.723 153.581C115.979 153.871 116.178 154.213 116.311 154.586C116.443 154.959 116.506 155.357 116.495 155.756C115.784 183.093 116.793 207.867 118.843 213.38C122.042 221.975 126.895 229.493 140.612 226.335C153.634 223.332 158.511 218.025 160.684 204.489C162.351 194.102 165.648 164.551 166.054 158.72C166.081 158.322 166.181 157.933 166.348 157.576C166.515 157.219 166.747 156.901 167.028 156.64C167.31 156.38 167.637 156.181 167.99 156.057C168.343 155.932 168.716 155.884 169.086 155.914C169.834 155.975 170.529 156.352 171.019 156.964C171.508 157.575 171.752 158.37 171.697 159.174C171.273 165.245 167.992 194.739 166.261 205.524C163.697 221.512 157.066 228.763 141.799 232.282C139.204 232.879 136.847 233.146 134.705 233.148ZM55.5456 172.451C54.2696 172.446 53.0025 172.221 51.793 171.784C42.3105 168.383 33.2783 151.783 24.9467 122.44C18.6049 100.105 14.5863 76.7913 14.2334 69.214C13.1888 46.7507 18.5695 30.8583 30.2298 21.9809C53.2969 4.41292 92.1015 21.1422 93.7419 21.8627C94.4369 22.1678 94.9906 22.7572 95.2812 23.5011C95.5719 24.2451 95.5758 25.0827 95.2919 25.8296C95.0081 26.5766 94.4598 27.1718 93.7677 27.4842C93.0755 27.7967 92.2963 27.8008 91.6014 27.4957C91.2272 27.3318 54.0169 11.3078 33.4894 26.9524C23.5191 34.5507 18.9419 48.6684 19.8836 68.9109C20.1797 75.2949 23.9341 98.0479 30.3575 120.664C37.7953 146.859 46.2599 163.388 53.5824 166.013C54.7316 166.425 58.2288 167.678 63.2282 161.215C69.0582 153.689 75.1069 146.362 81.3651 139.244C81.8888 138.682 82.5961 138.364 83.3356 138.356C84.0752 138.348 84.7883 138.651 85.3223 139.201C85.8563 139.751 86.1688 140.504 86.1928 141.299C86.2169 142.094 85.9507 142.867 85.4511 143.453C85.366 143.548 76.8552 153.112 67.5802 165.106C63.1874 170.785 58.9772 172.451 55.5456 172.451ZM178.674 146.821C178.161 146.821 177.657 146.67 177.218 146.386C176.778 146.101 176.419 145.694 176.178 145.207C175.937 144.72 175.824 144.172 175.851 143.621C175.877 143.07 176.043 142.538 176.329 142.08C202.688 100.038 211.94 49.2384 204.016 38.3537C194.042 24.6554 179.959 17.5012 162.156 17.0876C148.974 16.7826 138.496 20.4006 136.783 21.0316L136.352 21.2203C134.63 21.8017 133.309 20.7876 132.811 19.6019C132.527 18.9226 132.484 18.155 132.69 17.4439C132.896 16.7328 133.337 16.1274 133.93 15.7418C134.011 15.6903 134.27 15.5721 134.691 15.4063C137.601 14.2606 148.238 10.8294 161.413 10.9914C181.112 11.2163 197.385 19.3808 208.469 34.606C213.713 41.8097 213.726 58.4055 208.503 80.1406C203.179 102.301 193.161 126.116 181.02 145.481C180.477 146.352 179.583 146.821 178.674 146.821ZM180.021 166.284C175.52 166.284 171.486 165.602 169.07 164.046C166.588 162.447 166.114 160.274 166.052 159.12C165.375 146.329 171.94 144.103 175.288 143.087C174.822 142.328 174.158 141.436 173.472 140.515C171.52 137.892 168.845 134.301 166.784 128.929C166.462 128.09 165.451 126.14 164.28 123.881C157.933 111.647 144.726 86.1891 153.211 73.1523C157.137 67.119 164.956 64.7438 176.476 66.0687C173.087 54.9705 156.949 20.2539 118.655 19.579C107.138 19.3732 97.6931 23.18 90.5958 30.8831C74.7058 48.1328 75.2804 79.3438 75.2893 79.6564C75.2991 80.0557 75.2356 80.4531 75.1025 80.8261C74.9694 81.199 74.7692 81.54 74.5135 81.8298C74.2577 82.1196 73.9514 82.3524 73.612 82.5149C73.2725 82.6774 72.9066 82.7664 72.5352 82.777C72.1637 82.7875 71.7939 82.7192 71.447 82.5762C71.1001 82.4331 70.7828 82.2179 70.5132 81.943C70.2436 81.6681 70.027 81.3389 69.8759 80.974C69.7247 80.6091 69.6418 80.2158 69.632 79.8165C69.5966 78.4307 69.0042 45.6775 86.5755 26.6017C94.7989 17.6747 105.624 13.2675 118.749 13.4981C143.247 13.9308 159.017 27.3184 167.93 38.4719C177.647 50.628 182.41 64.0366 182.802 68.5125C183.095 71.8408 180.873 72.5061 180.424 72.6052L179.403 72.63C168.097 70.6837 160.843 72.0352 157.845 76.6407C151.391 86.5551 163.885 110.637 169.219 120.921C170.581 123.544 171.564 125.441 172.014 126.611C173.767 131.179 176.052 134.248 177.888 136.714C179.504 138.884 180.903 140.765 181.403 142.973C181.635 143.411 184.932 148.653 204.495 144.313C209.398 143.226 212.339 144.154 213.238 147.077C215.006 152.824 205.085 159.528 199.593 162.27C194.672 164.729 186.817 166.284 180.021 166.284ZM171.693 158.619C172.314 159.292 175.419 160.453 181.85 160.155C187.567 159.892 193.597 158.556 197.215 156.751C201.842 154.441 204.931 151.858 206.531 150.094L205.644 150.27C193.136 153.045 184.288 152.675 179.348 149.17C179.016 148.934 178.696 148.679 178.39 148.405C177.854 148.632 177.359 148.781 177.007 148.888C174.205 149.732 171.307 150.607 171.693 158.619ZM90.892 175.613C87.7849 175.613 84.5147 175.158 81.1753 174.26C77.7154 173.33 71.8825 170.529 71.9712 165.929C72.0723 160.769 79.0543 159.221 81.6825 158.64C91.1775 156.537 91.7965 155.695 94.7634 151.644C95.6289 150.464 96.7053 148.994 98.1737 147.233C100.353 144.61 102.735 143.281 105.253 143.281C107.007 143.281 108.445 143.92 109.396 144.345C112.425 145.695 114.952 148.958 115.991 152.86C116.93 156.381 116.481 159.77 114.732 162.403C108.992 171.044 100.747 175.613 90.892 175.613ZM78.0842 166.191C78.9373 166.9 80.6469 167.847 82.5498 168.358C85.4422 169.136 88.2478 169.53 90.8938 169.53C98.9558 169.53 105.429 165.943 110.13 158.867C111.111 157.391 110.817 155.518 110.554 154.532C110.004 152.468 108.639 150.59 107.232 149.963C106.47 149.623 105.837 149.364 105.255 149.364C104.943 149.364 103.992 149.364 102.393 151.288C101.289 152.622 100.228 153.997 99.2112 155.409C95.5154 160.453 93.8217 162.165 82.8264 164.599C80.1432 165.19 78.767 165.792 78.0842 166.191ZM99.8425 152.161C99.167 152.159 98.5142 151.899 98.0019 151.425C97.4897 150.952 97.1518 150.297 97.0494 149.58C96.979 149.075 96.9317 148.566 96.9075 148.056C89.7003 147.912 82.7466 144.587 77.4671 138.666C70.7919 131.18 67.754 120.809 69.1337 110.212C70.6323 98.7037 70.0718 88.5453 69.7704 83.0877C69.687 81.5703 69.6267 80.4742 69.6303 79.7155C69.6356 78.7529 69.6533 76.2004 77.5912 71.8751C80.4145 70.3368 86.0753 67.6528 92.2593 66.9646C102.504 65.8266 109.258 70.7314 111.279 80.7773C116.736 107.899 111.712 119.895 108.043 128.657C107.36 130.288 106.715 131.829 106.199 133.321L105.743 134.636C103.804 140.224 102.129 145.05 102.643 148.655C102.699 149.05 102.683 149.453 102.594 149.841C102.506 150.229 102.347 150.594 102.127 150.916C101.908 151.238 101.631 151.51 101.313 151.717C100.995 151.924 100.643 152.062 100.275 152.123L99.8425 152.161ZM75.307 80.5581L75.417 82.7293C75.7291 88.3985 76.3108 98.9477 74.736 111.056C73.5992 119.796 76.082 128.327 81.5513 134.457C85.8732 139.303 91.5606 141.977 97.4058 141.977H97.5264C98.1808 139.013 99.2679 135.883 100.438 132.511L100.891 131.203C101.474 129.518 102.157 127.886 102.88 126.159C106.411 117.726 110.808 107.228 105.745 82.064C104.743 77.0792 102.311 74.195 98.3156 73.2438C90.1081 71.2956 77.8767 77.9313 75.307 80.5581ZM92.3852 79.2676C92.2434 80.3427 94.2172 83.2135 96.7922 83.5966C99.3619 83.9836 101.561 81.738 101.701 80.6629C101.841 79.5878 99.8691 78.4021 97.2941 78.017C94.7209 77.632 92.5218 78.1924 92.3852 79.2676ZM97.3828 84.6546L96.661 84.6012C95.0649 84.363 93.4511 83.2821 92.3462 81.7075C91.9578 81.1547 91.3247 80.0834 91.4506 79.1265C91.6298 77.7235 93.2223 76.8828 95.7069 76.8828C96.262 76.8828 96.8401 76.9267 97.4218 77.0144C98.7803 77.2164 100.041 77.6377 100.972 78.1962C102.586 79.1646 102.705 80.2455 102.632 80.804C102.434 82.3538 100.14 84.6546 97.3828 84.6546ZM93.3234 79.4467C93.4032 80.1101 94.9319 82.2985 96.9217 82.594L97.3846 82.6283C99.2218 82.6283 100.594 81.0747 100.756 80.5657C100.586 80.2188 99.4045 79.3571 97.1647 79.0216C96.6824 78.9473 96.1959 78.9097 95.7087 78.9092C94.2686 78.9092 93.5043 79.258 93.3234 79.4467ZM170.654 77.0735C170.794 78.1486 168.822 81.0194 166.249 81.4045C163.677 81.7895 161.477 79.5459 161.335 78.4707C161.2 77.3956 163.172 76.208 165.743 75.8249C168.315 75.4379 170.512 76.0002 170.654 77.0735ZM165.655 81.9535C163.179 81.9535 161.042 79.8833 160.867 78.5394C160.663 76.9267 163.133 75.701 165.676 75.3216C166.236 75.2377 166.792 75.1958 167.325 75.1958C169.521 75.1958 170.975 75.8878 171.121 77.0048C171.215 77.7273 170.698 78.8425 169.81 79.849C169.223 80.5104 167.99 81.6561 166.311 81.9058L165.655 81.9535ZM167.327 76.2099C166.838 76.2099 166.327 76.25 165.809 76.3262C163.254 76.7094 161.728 77.8112 161.803 78.4021C161.888 79.0521 163.52 80.9412 165.657 80.9412L166.183 80.9012C167.579 80.6934 168.627 79.7136 169.127 79.1494C169.913 78.263 170.225 77.428 170.188 77.144C170.138 76.7666 169.195 76.2099 167.327 76.2099ZM174.359 138.817C173.846 138.817 173.343 138.668 172.903 138.384C172.464 138.101 172.104 137.694 171.863 137.208C171.622 136.722 171.508 136.174 171.534 135.624C171.56 135.073 171.725 134.541 172.011 134.084C178.037 124.409 176.934 114.545 175.868 105.004C175.412 100.94 174.944 96.7364 175.065 92.7028C175.189 88.5529 175.68 85.1293 176.154 81.8181C176.716 77.8951 177.248 74.1893 177.028 69.7897C177.008 69.3909 177.061 68.9918 177.185 68.6151C177.308 68.2385 177.499 67.8916 177.747 67.5944C177.996 67.2972 178.296 67.0555 178.631 66.883C178.966 66.7105 179.329 66.6106 179.7 66.5891C180.071 66.5676 180.443 66.6248 180.793 66.7575C181.144 66.8902 181.466 67.0958 181.743 67.3626C182.301 67.9013 182.638 68.6564 182.678 69.4618C182.93 74.4905 182.329 78.6842 181.747 82.7426C181.298 85.8746 180.834 89.1133 180.722 92.8972C180.614 96.4696 181.038 100.263 181.486 104.278C182.621 114.423 183.907 125.921 176.714 137.467C176.455 137.883 176.104 138.224 175.694 138.459C175.283 138.695 174.824 138.817 174.359 138.817Z" fill="white"/>
</svg>
